<?xml version="1.0" encoding="utf-8"?><svg viewBox="0 0 192 187" xmlns="http://www.w3.org/2000/svg" xmlns:xlink="http://www.w3.org/1999/xlink"><style>:root>svg{display:none}:root>svg:target{display:block}</style><svg fill="none" viewBox="0 0 6 14" id="arrow-down" xmlns="http://www.w3.org/2000/svg"><path d="M2.717 13.783a.4.4 0 0 0 .566 0l2.545-2.546a.4.4 0 0 0-.565-.565L3 12.934.737 10.672a.4.4 0 0 0-.565.565l2.545 2.546ZM2.6.5v13h.8V.5h-.8Z" fill="#000"/></svg><svg fill="none" viewBox="0 0 13 8" id="arrow-left" xmlns="http://www.w3.org/2000/svg"><path d="M.646 3.646a.5.5 0 0 0 0 .708l3.182 3.182a.5.5 0 1 0 .708-.708L1.707 4l2.829-2.828a.5.5 0 1 0-.708-.708L.646 3.646ZM13 3.5H1v1h12v-1Z" fill="#744D3A"/></svg><svg fill="none" viewBox="0 0 13 8" id="arrow-right" xmlns="http://www.w3.org/2000/svg"><path d="M12.354 4.354a.5.5 0 0 0 0-.708L9.172.464a.5.5 0 1 0-.708.708L11.293 4 8.464 6.828a.5.5 0 1 0 .708.708l3.182-3.182ZM0 4.5h12v-1H0v1Z" fill="#744D3A"/></svg><svg fill="none" viewBox="0 0 8 4" id="arrow-right-btn" xmlns="http://www.w3.org/2000/svg"><path d="M7.106 2.106a.15.15 0 0 0 0-.212L6.151.939a.15.15 0 0 0-.212.212L6.788 2l-.849.849a.15.15 0 1 0 .212.212l.955-.955ZM0 2.15h7v-.3H0v.3Z" fill="#000"/></svg><svg fill="none" viewBox="0 0 20 6" id="breadcrumb-arrow-icon" xmlns="http://www.w3.org/2000/svg"><path d="M19.247 3.247a.35.35 0 0 0 0-.494L17.02.525a.35.35 0 0 0-.495.495L18.505 3l-1.98 1.98a.35.35 0 1 0 .495.495l2.227-2.228ZM0 3.35h19v-.7H0v.7Z" fill="#685C56"/></svg><svg viewBox="0 0 16 15" fill="none" id="brilliant-icon" xmlns="http://www.w3.org/2000/svg"><g stroke="#B38A77" stroke-width=".7" stroke-miterlimit="10"><path d="m3.909 1 4.078 12.666M14.97 3.962H1M7.965 1 4.859 3.973M7.985 1h4.078l2.908 2.911-6.986 9.755L1 3.911 3.908 1h4.077ZM11.11 3.973 8.005 1M12.061 1 7.984 13.666"/></g></svg><svg fill="none" viewBox="0 0 14 14" id="building-icon" xmlns="http://www.w3.org/2000/svg"><g stroke="#B38A77" stroke-width=".7"><rect x=".35" y=".35" width="13.3" height="1.3" rx=".65"/><path d="M1 2v11h12V2M0 7.65h14"/><path d="M6 13v-2.5a1.5 1.5 0 1 0-3 0V13M11 13v-2.5a1.5 1.5 0 1 0-3 0V13M6 8V5.5a1.5 1.5 0 1 0-3 0V8M11 8V5.5a1.5 1.5 0 1 0-3 0V8"/></g></svg><svg fill="none" viewBox="0 0 12 12" id="cross-icon" xmlns="http://www.w3.org/2000/svg"><path d="M1.012 1.268 11 11m-.012-10L1 10.732" stroke="#fff"/></svg><svg fill="none" viewBox="0 0 10 11" id="ellipse-icon" xmlns="http://www.w3.org/2000/svg"><circle cx="5" cy="5.5" r="5" fill="#91E26B"/></svg><svg fill="none" viewBox="0 0 23 19" id="filter-icon" xmlns="http://www.w3.org/2000/svg"><g stroke="#fff" stroke-miterlimit="10"><path d="M15.52 18.488a3.154 3.154 0 1 0 0-6.307 3.154 3.154 0 0 0 0 6.307ZM.134 15.335h12.27M23 15.335h-4.326M7.48 6.819a3.154 3.154 0 1 0 0-6.307 3.154 3.154 0 0 0 0 6.307ZM22.866 3.666h-12.27M0 3.666h4.326"/></g></svg><svg fill="none" viewBox="0 0 18 14" id="go-back-icon" xmlns="http://www.w3.org/2000/svg"><path d="m1 5.5-.354.354L.293 5.5l.353-.354L1 5.5Zm16.5 8a.5.5 0 0 1-1 0h1ZM5.646 10.854l-5-5 .708-.708 5 5-.708.708Zm-5-5.708 5-5 .708.708-5 5-.708-.708ZM1 5h10v1H1V5Zm16.5 6.5v2h-1v-2h1ZM11 5a6.5 6.5 0 0 1 6.5 6.5h-1A5.5 5.5 0 0 0 11 6V5Z" fill="#B38A77"/></svg><svg fill="none" viewBox="0 0 192 187" id="header-logo-icon" xmlns="http://www.w3.org/2000/svg"><path fill="url(#la)" d="M0 0h192v187H0z"/><path d="M109.028 39.226c-1.92 2.116-4.045 4.634-6.361 7.464-6.355 7.767-10.553 14.789-20.487 31.42-.612 1.022-.279-3.954-.245-4.46.781-9.645 2.883-19.143 2.438-28.854-1.294-13.748-10.455 2.16-13.219 9.24-2.757 6.943-4.685 14.449-5.032 21.989-.143 2.264-.235 12.84 2.497 12.749C60.193 71.097 90.18 8.879 82.154 60.55c-.441 5.793-1.405 10.716-1.437 17.359-.01 1.256.721 2.329 1.925 1.714 1.008-.634 1.57-1.792 2.23-2.786 1.868-2.984 3.692-6.004 5.607-8.957 5.057-7.867 10.224-15.686 16.038-22.957 1.585-2.026 3.217-3.845 4.967-5.698h-2.456Z" fill="url(#lb)"/><path d="M120.135 39.226c-.968 10.473-2.768 20.876-4.934 31.177-1.969 9.36-3.587 18.35-7.021 28.836-.341 1.042-1.118 2.764-.709 3.842.062.163.287.198.391.056 1.5-2.045 5.415-16.268 6.657-21.62 5.022-21.641 7.321-35.04 7.287-42.291h-1.671Z" fill="url(#lc)"/><g fill="#fff"><path d="M29.358 125.316h-1.49l2.177-13.807 5.02 11.042 5.12-11.062 2.04 13.827h-1.491l-1.236-9.1-4.452 9.649-4.393-9.649-1.294 9.1ZM59.293 125.316l-1.53-3.687h-5.57l-1.569 3.687h-1.608l6.021-13.709 5.865 13.709h-1.609Zm-6.53-5.06h4.432l-2.197-5.237-2.236 5.237ZM74.206 113.607h-3.177v11.709h-1.452v-11.709H66.4v-1.373h7.806v1.373ZM90.772 113.313v1.804a6.03 6.03 0 0 0-1.707-1.216 5.39 5.39 0 0 0-2.255-.51c-1.504 0-2.76.53-3.766 1.589-.994 1.046-1.49 2.334-1.49 3.864 0 1.647.542 2.948 1.627 3.903 1.099.954 2.315 1.432 3.648 1.432a5.24 5.24 0 0 0 2.432-.608 5.8 5.8 0 0 0 1.51-1.099v1.805c-1.19.85-2.503 1.274-3.942 1.274-1.935 0-3.55-.647-4.844-1.941-1.281-1.295-1.922-2.89-1.922-4.786 0-1.948.647-3.569 1.942-4.864 1.307-1.294 2.942-1.941 4.903-1.941 1.438 0 2.726.431 3.864 1.294ZM100.195 112.234v5.315h6.708v-5.315h1.451v13.082h-1.451v-6.394h-6.708v6.394h-1.451v-13.082h1.451ZM119.791 125.316v-5.629l-4.296-7.453h1.687l3.334 5.845 3.374-5.845h1.686l-4.334 7.453v5.629h-1.451ZM143.167 123.61c-1.308 1.294-2.916 1.941-4.825 1.941-1.909 0-3.524-.647-4.845-1.941-1.307-1.295-1.961-2.903-1.961-4.825 0-1.935.66-3.543 1.981-4.825 1.321-1.294 2.929-1.941 4.825-1.941 1.896 0 3.504.647 4.825 1.941 1.32 1.282 1.98 2.89 1.98 4.825 0 1.922-.66 3.53-1.98 4.825Zm-1.06-8.65c-1.033-1.046-2.288-1.569-3.765-1.569-1.478 0-2.733.523-3.766 1.569-1.033 1.047-1.549 2.321-1.549 3.825s.516 2.779 1.549 3.825c1.033 1.046 2.288 1.569 3.766 1.569 1.477 0 2.732-.523 3.765-1.569 1.033-1.046 1.55-2.321 1.55-3.825s-.517-2.778-1.55-3.825ZM154.561 112.234v8.022c0 .497.006.883.019 1.157.026.275.118.615.275 1.02.17.392.418.726.745 1 .588.497 1.308.746 2.157.746.85 0 1.569-.249 2.158-.746a2.5 2.5 0 0 0 .726-1c.17-.405.261-.745.274-1.02.026-.274.039-.66.039-1.157v-8.022h1.452v8.414c0 1.334-.275 2.38-.824 3.138a4.154 4.154 0 0 1-1.608 1.295c-.654.314-1.393.47-2.217.47-.823 0-1.569-.156-2.235-.47a4.189 4.189 0 0 1-1.589-1.295c-.549-.758-.824-1.804-.824-3.138v-8.414h1.452Z"/></g><g fill="#D7A69C"><path d="M55.734 133.182h.456v2.457h-.456v-2.457Zm-1.27 2.457h-.457v-2.457h.456v2.457Zm1.305-1.053h-1.344v-.39h1.344v.39ZM59.123 135.674c-.192 0-.369-.032-.53-.095a1.22 1.22 0 0 1-.797-1.169c0-.182.033-.349.098-.501.066-.155.158-.288.278-.401.119-.114.26-.203.42-.266.162-.063.338-.095.527-.095.192 0 .367.032.527.095.161.063.301.152.42.266.12.113.212.246.278.401.066.152.098.319.098.501 0 .183-.032.351-.098.506a1.171 1.171 0 0 1-.277.4c-.12.112-.26.2-.421.263-.16.063-.334.095-.523.095Zm-.004-.4a.92.92 0 0 0 .344-.063.807.807 0 0 0 .453-.453.885.885 0 0 0 .067-.348.853.853 0 0 0-.067-.343.798.798 0 0 0-.18-.274.775.775 0 0 0-.273-.183.92.92 0 0 0-.344-.063.92.92 0 0 0-.344.063.84.84 0 0 0-.52.8c0 .124.022.239.064.344a.806.806 0 0 0 .456.457.92.92 0 0 0 .344.063ZM62.049 135.639v-2.457h.376l1.074 1.794h-.197l1.056-1.794h.376l.004 2.457h-.432l-.004-1.78h.091l-.898 1.499h-.203l-.913-1.499h.105v1.78h-.435ZM66.945 134.203h1.222v.376h-1.222v-.376Zm.035 1.053h1.387v.383h-1.843v-2.457h1.794v.383H66.98v1.691ZM73.229 135.674c-.188 0-.362-.03-.523-.091a1.292 1.292 0 0 1-.418-.264 1.228 1.228 0 0 1-.274-.403 1.284 1.284 0 0 1-.098-.506c0-.182.033-.351.098-.505a1.226 1.226 0 0 1 .695-.663c.16-.063.334-.095.523-.095.201 0 .385.035.551.105.166.068.307.17.421.306l-.294.277a.871.871 0 0 0-.657-.288.967.967 0 0 0-.354.063.845.845 0 0 0-.278.179.852.852 0 0 0-.182.274.926.926 0 0 0-.063.347c0 .127.02.243.063.348a.863.863 0 0 0 .183.274c.079.077.171.137.277.179a.967.967 0 0 0 .354.063.919.919 0 0 0 .358-.07.894.894 0 0 0 .298-.221l.295.28a1.127 1.127 0 0 1-.42.306c-.167.07-.352.105-.555.105ZM77.491 133.182h.457v2.457h-.457v-2.457Zm-1.27 2.457h-.456v-2.457h.456v2.457Zm1.305-1.053h-1.344v-.39h1.344v.39ZM79.382 135.639l1.105-2.457h.45l1.108 2.457h-.477l-.951-2.215h.182l-.947 2.215h-.47Zm.508-.569.123-.358h1.327l.123.358H79.89ZM83.481 135.639v-2.457h.376l1.54 1.892h-.186v-1.892h.453v2.457h-.376l-1.54-1.892h.186v1.892h-.453ZM88.593 135.674c-.192 0-.368-.03-.53-.091a1.294 1.294 0 0 1-.418-.264 1.203 1.203 0 0 1-.277-.403 1.284 1.284 0 0 1-.098-.506c0-.182.033-.351.098-.505.066-.154.158-.288.277-.4.122-.115.264-.202.425-.263.162-.063.338-.095.53-.095.208 0 .396.034.562.102.168.068.31.167.424.298l-.287.281a.929.929 0 0 0-.678-.281.995.995 0 0 0-.358.063.83.83 0 0 0-.47.453.924.924 0 0 0-.063.347c0 .124.02.239.063.344a.861.861 0 0 0 .186.278c.08.077.173.137.28.179a.978.978 0 0 0 .359.063c.121 0 .238-.019.35-.056a.984.984 0 0 0 .327-.197l.26.341a1.372 1.372 0 0 1-.45.235 1.76 1.76 0 0 1-.512.077Zm.53-.372v-.92h.432v.98l-.432-.06ZM91.7 134.203h1.222v.376h-1.221v-.376Zm.036 1.053h1.386v.383H91.28v-2.457h1.793v.383h-1.337v1.691ZM95.516 135.674c-.192 0-.376-.027-.552-.081a1.214 1.214 0 0 1-.417-.214l.158-.354c.098.077.22.141.365.193.145.051.293.077.446.077a.96.96 0 0 0 .312-.042.378.378 0 0 0 .175-.113.264.264 0 0 0 .056-.164.22.22 0 0 0-.08-.179.547.547 0 0 0-.21-.109 2.792 2.792 0 0 0-.285-.077 6.638 6.638 0 0 1-.313-.081 1.511 1.511 0 0 1-.284-.123.636.636 0 0 1-.207-.204.588.588 0 0 1-.08-.323.665.665 0 0 1 .431-.631c.148-.068.334-.102.558-.102.148 0 .294.019.439.056.145.038.271.091.379.162l-.144.354a1.344 1.344 0 0 0-.34-.144 1.239 1.239 0 0 0-.337-.049.864.864 0 0 0-.31.046.386.386 0 0 0-.171.119.281.281 0 0 0-.053.168c0 .075.026.136.077.183a.606.606 0 0 0 .207.105c.087.026.183.052.288.077.106.024.21.051.313.081.105.031.2.07.284.119a.57.57 0 0 1 .288.52.659.659 0 0 1-.11.365.741.741 0 0 1-.326.267 1.387 1.387 0 0 1-.557.098ZM100.598 134.203h1.222v.376h-1.222v-.376Zm.036 1.053h1.386v.383h-1.843v-2.457h1.794v.383h-1.337v1.691ZM104.344 135.639l-1.074-2.457h.495l.958 2.222h-.284l.968-2.222h.457l-1.071 2.457h-.449ZM107.667 134.203h1.221v.376h-1.221v-.376Zm.035 1.053h1.386v.383h-1.842v-2.457h1.793v.383h-1.337v1.691ZM110.72 135.639v-2.457h1.011c.218 0 .404.035.558.105a.812.812 0 0 1 .361.302.84.84 0 0 1 .127.467.84.84 0 0 1-.127.467.817.817 0 0 1-.361.298c-.154.068-.34.102-.558.102h-.758l.203-.207v.923h-.456Zm1.608 0-.622-.892h.488l.625.892h-.491Zm-1.152-.874-.203-.218h.737c.201 0 .352-.043.453-.13a.445.445 0 0 0 .154-.361.442.442 0 0 0-.154-.362c-.101-.084-.252-.126-.453-.126h-.737l.203-.224v1.421ZM114.98 135.639v-.972l.102.28-1.067-1.765h.487l.857 1.421h-.274l.863-1.421h.45l-1.067 1.765.105-.28v.972h-.456ZM118.284 135.639v-2.071h-.815v-.386h2.085v.386h-.814v2.071h-.456ZM122.746 133.182h.457v2.457h-.457v-2.457Zm-1.27 2.457h-.456v-2.457h.456v2.457Zm1.306-1.053h-1.345v-.39h1.345v.39ZM124.984 135.639v-2.457h.456v2.457h-.456ZM127.228 135.639v-2.457h.376l1.54 1.892h-.186v-1.892h.453v2.457h-.376l-1.54-1.892h.186v1.892h-.453ZM132.34 135.674a1.49 1.49 0 0 1-.53-.091 1.214 1.214 0 0 1-.695-.667 1.293 1.293 0 0 1-.098-.506c0-.182.033-.351.098-.505.066-.154.158-.288.277-.4.122-.115.264-.202.425-.263.162-.063.338-.095.53-.095.208 0 .396.034.562.102a1.1 1.1 0 0 1 .424.298l-.287.281a.936.936 0 0 0-.678-.281.994.994 0 0 0-.358.063.823.823 0 0 0-.47.453.928.928 0 0 0-.063.347.849.849 0 0 0 .249.622.829.829 0 0 0 .281.179.975.975 0 0 0 .358.063c.121 0 .238-.019.351-.056a.988.988 0 0 0 .326-.197l.26.341a1.383 1.383 0 0 1-.449.235c-.169.051-.34.077-.513.077Zm.53-.372v-.92h.432v.98l-.432-.06Z"/></g><defs><radialGradient id="lb" cx="0" cy="0" r="1" gradientUnits="userSpaceOnUse" gradientTransform="matrix(0 24.7742 -22.7097 0 88.774 64)"><stop stop-color="#E7B3A5"/><stop offset="1" stop-color="#A2645D"/></radialGradient><radialGradient id="lc" cx="0" cy="0" r="1" gradientUnits="userSpaceOnUse" gradientTransform="matrix(0 32 -7.22581 0 114.581 71.226)"><stop stop-color="#AE847F"/><stop offset="1" stop-color="#A2645D"/></radialGradient><linearGradient id="la" x1="192.739" y1="-2.245" x2="-15.223" y2="168.454" gradientUnits="userSpaceOnUse"><stop stop-color="#434343"/><stop offset="1" stop-color="#101010"/></linearGradient></defs></svg><svg fill="none" viewBox="0 0 14 18" id="location-icon" xmlns="http://www.w3.org/2000/svg"><g stroke="#B38A77" stroke-miterlimit="10"><path d="M13 6.97C13 12.312 7 17 7 17S1 12.312 1 6.97C.998 3.673 3.684 1 6.998 1s6 2.673 6 5.97H13Z"/><path d="M6.999 9.784a2.886 2.886 0 0 0 2.893-2.879 2.886 2.886 0 0 0-2.893-2.879 2.886 2.886 0 0 0-2.894 2.88A2.886 2.886 0 0 0 7 9.783Z"/></g></svg><svg fill="none" viewBox="0 0 152 152" id="matchyou-circle-icon" xmlns="http://www.w3.org/2000/svg"><circle cx="76" cy="76" r="76" fill="#fff"/><g fill="#A99E94"><path d="M132.963 79.062c-.012.312-.224.52-.56.507-.312-.012-.52-.212-.507-.548.012-.311.212-.532.548-.519.312.012.532.225.519.56ZM129.04 86.85l.103.03-.053.185c-.172.587-.026.73.61.952l6.556 2.249.242.07c.254.074.389.039.533-.457l.135-.46.103.03-.493 1.693-7.471 1.06c-.261.037-.477.049-.546.029l-.017.057c.069.02.299.175.449.306l5.731 4.908-.503 1.728-.104-.03.114-.392c.165-.565.016-.696-.319-.793-.092-.027-.195-.057-.314-.08l-6.517-1.611c-.664-.168-.848-.135-1.033.499l-.074.253-.104-.03.877-3.007.103.03-.121.415c-.181.622-.043.75.233.83l.208.06 6.138 1.54c.211.049.384.1.511.136l.02-.07c-.035-.01-.207-.147-.419-.321l-5.998-5.11-.07-.058.007-.023.09-.011 7.664-1.08c.261-.036.486.005.521.015l.013-.046c-.103-.03-.184-.054-.388-.126l-5.964-2.05c-.101-.042-.189-.08-.259-.1-.276-.081-.433-.014-.618.62l-.121.414-.103-.03.648-2.224ZM127.092 104.533l2.285 1.174c.907.466 1.628.27 2.045-.542.543-1.056.204-1.946-.596-2.41l-.651-.362.098-.192 2.459 1.412-.055.106-.549-.322a2.315 2.315 0 0 1-.32-.218l-.059.063c.026.027.143.195.158.297a2.773 2.773 0 0 1-.287 1.714c-.708 1.377-1.689 1.791-2.81 1.215l-5.273-2.709c-.427-.219-.561-.247-.725.073-.033.064-.099.219-.099.219l-.083.187-.096-.049c.21-.54.3-.926.358-1.274l.085.044c.256.132.652.254 1.021.376.294.084.567.183.738.271l.054-.107c-1.116-.978-1.202-1.913-.808-2.681.593-1.153 1.73-1.661 2.787-1.118 1.324.68 1.634 2.282.751 4.001l-.428.832Zm-.192-.098.4-.78c.615-1.195.209-2.402-1.008-3.027-.886-.455-1.709-.27-2.087.466-.384.747-.112 1.899 1.414 2.683l1.281.658ZM120.563 106.939l.087.063-.536.738c-.339.466-.326.55.14.888l6.201 4.511.424-.582c.677-.932.733-1.396-.163-2.122l-.38-.335.14-.151 2.145 1.783-.08.09-.535-.448-3.289 4.522.588.354-.068.114-2.347-1.485.107-.189.429.267c.981.61 1.391.433 2.069-.498l.409-.563-6.201-4.511c-.465-.339-.549-.325-.888.14l-.522.719-.088-.064 2.358-3.241ZM119.14 115.911c1.844 1.872 1.886 4.29.091 6.059-.572.565-1.305.933-2.103.995a.591.591 0 0 1-.262-.079l-.043.076c.084.052.177.129.27.223l.623.599-.068.084-2.512-2.394.146-.16.809.769c.801.727 2.219.508 3.065-.325 1.402-1.382 1.169-3.123-.642-4.961-2.022-2.051-3.886-2.37-5.348-.93-.812.801-1.16 2.02-.752 3.033l-.196.092c-.5-1.192-.084-2.411.814-3.295 1.794-1.769 4.238-1.683 6.108.214ZM109.426 119.134l.061.088-.345.24c-.473.328-.426.501-.098.974l3.949 5.687c.329.473.474.577.947.248l.345-.239.062.088-2.425 1.684-.062-.089.257-.177c.473-.329.436-.508.108-.981l-1.787-2.573-2.701 1.876 1.787 2.572c.328.473.483.57.957.242l.256-.178.061.088-2.434 1.691-.062-.089.355-.246c.473-.329.427-.501.098-.974l-3.949-5.687c-.329-.473-.474-.577-.947-.249l-.355.247-.061-.089 2.434-1.69.062.088-.266.185c-.473.329-.427.501-.098.974l2.039 2.937 2.701-1.875-2.04-2.937c-.328-.474-.483-.571-.956-.242l-.257.178-.061-.089 2.425-1.683ZM100.664 124.739l.046.097-.932.444c-.52.248-.548.328-.3.848l1.43 3.001 3.261 2.46c.497.375.762.567 1.076.418l.227-.109.042.087-2.048.976-.041-.087.672-.32-.011-.022c-.166.013-.405-.152-.733-.395l-2.668-1.998c-.1-.072-.264-.22-.306-.28l-.075.036c.02.071.026.28.024.414l-.102 3.133c-.004.215.009.408.076.549.082.173.263.246.599.086l.65-.31.041.087-2.09.997-.041-.087.184-.088c.314-.149.34-.428.359-1.115l.126-3.862-1.508-3.163c-.248-.52-.328-.548-.847-.3l-.802.382-.047-.098 3.738-1.781ZM89.59 128.9c2.585-.69 4.755.556 5.44 3.118.68 2.551-.58 4.713-3.166 5.403-2.563.684-4.733-.562-5.414-3.113-.684-2.562.577-4.724 3.14-5.408Zm.02.218c-2.098.56-2.879 2.196-2.21 4.701.74 2.771 2.31 3.954 4.454 3.381 2.11-.563 2.888-2.211 2.222-4.704-.742-2.782-2.298-3.957-4.466-3.378ZM76.047 131.139l-.008-.108c.573-.066 1.14-.204 1.6-.334l.007.095c-.018.242-.013.471.002.686l.124 1.676.107-.008c.125-1.742 1.078-2.534 2.203-2.617 1.172-.086 2.069.486 2.155 1.659l.446 6.08c.017.227.158.349.386.332l.562-.041.008.108-.682.05c-.479.035-1.09.224-1.055.715l.004.048-.096.007-.523-7.121c-.081-1.113-.603-1.664-1.297-1.613-1.28.094-2.053 1.378-1.918 3.209l.344 4.691c.042.575.118.629.693.587l.203-.015.008.108-1.851.184-.007-.096c.02-.218.017-.422.001-.638l-.52-7.073c-.042-.574-.118-.629-.692-.586l-.204.015ZM67.226 133.476c-.308-.045-.492-.279-.443-.611.045-.309.267-.494.6-.445.308.045.505.268.456.601-.045.308-.28.504-.613.455ZM60.094 128.776l-.04.1-.178-.073c-.567-.232-.724-.102-1.012.507l-2.925 6.284-.096.233c-.1.244-.079.382.399.578l.444.182-.041.1-1.632-.669-.269-7.541c-.009-.263.002-.479.03-.546l-.056-.022c-.028.066-.205.279-.351.413l-5.484 5.184-1.665-.682.04-.1.378.154c.544.223.69.089.822-.233.037-.089.078-.189.112-.305l2.288-6.311c.238-.642.224-.83-.387-1.08l-.244-.1.04-.1 2.898 1.188-.04.1-.4-.164c-.6-.246-.741-.122-.85.144l-.082.2-2.176 5.943c-.071.204-.14.371-.19.493l.067.027c.014-.033.169-.19.364-.382l5.713-5.427.065-.064.022.009.002.091.267 7.735c.009.263-.056.483-.07.516l.045.018c.041-.099.073-.177.166-.372l2.667-5.716c.052-.096.1-.18.126-.246.11-.267.06-.43-.551-.68l-.4-.164.041-.1 2.143.878ZM45.04 121.137c2.205 1.518 2.666 3.978 1.162 6.162-1.498 2.174-3.962 2.619-6.165 1.101-2.184-1.505-2.646-3.965-1.148-6.139 1.505-2.184 3.968-2.629 6.152-1.124Zm-.151.157c-1.789-1.232-3.54-.763-5.01 1.371-1.628 2.362-1.508 4.325.32 5.584 1.798 1.239 3.556.76 5.02-1.364 1.634-2.372 1.518-4.318-.33-5.591ZM37.6 119.177l-.145-.143.319-.377c.947-1.054.898-2.377.084-3.174-.772-.756-1.774-.762-2.512-.007-.722.738-.515 1.796-.24 2.854.31 1.176.611 2.412-.37 3.415-.815.832-2.03.735-3.05-.264a2.577 2.577 0 0 1-.771-1.493c-.019-.102.039-.298.055-.332l-.077-.041a2.198 2.198 0 0 1-.234.308l-.419.479-.086-.083 1.887-2.117.162.143-.335.377c-.629.711-.88 1.774-.03 2.605.702.688 1.45.697 2.112.019.697-.712.448-1.693.165-2.742-.31-1.21-.596-2.548.453-3.62.907-.927 2.283-.789 3.424.327.531.521.766 1.053.902 1.79.018.101-.013.39-.063.492l.043.025c.067-.102.234-.291.326-.402l.512-.557.069.067-2.18 2.451ZM30.938 114.373c-2.108 1.57-4.51 1.278-6.014-.744-.48-.645-.744-1.421-.695-2.22a.584.584 0 0 1 .113-.249l-.069-.053a1.507 1.507 0 0 1-.258.236l-.678.535-.075-.079 2.718-2.157.139.166-.874.695c-.83.693-.81 2.128-.1 3.081 1.175 1.579 2.931 1.588 5.001.047 2.31-1.719 2.883-3.522 1.658-5.168-.68-.915-1.84-1.428-2.9-1.163l-.064-.206c1.25-.332 2.4.248 3.152 1.259 1.504 2.022 1.083 4.43-1.054 6.02ZM27.151 100.239c1.17 2.407.359 4.775-2.026 5.934-2.375 1.154-4.738.327-5.907-2.08-1.16-2.385-.349-4.754 2.026-5.907 2.385-1.16 4.748-.333 5.907 2.053Zm-.21.062c-.95-1.954-2.704-2.409-5.036-1.276-2.58 1.254-3.442 3.02-2.472 5.017.954 1.964 2.72 2.414 5.041 1.286 2.59-1.258 3.448-3.009 2.467-5.027ZM15.631 95.5l-.356-1.691.165-.035c.176-.037.333-.107.487-.189l6.029-3.808c.032-.019.243-.125.408-.16l-.025-.117c-.035.008-.176.037-.44.007l-5.943-.502-.737.4c-.518.281-.672.424-.583.847l.057.27-.105.022-.554-2.63.105-.022.235 1.115.024-.005c.024-.176.264-.374.463-.478l6.128-3.338c.201-.092.325-.142.408-.16l-.035-.164c-.094.02-.24.026-.48-.01l-6.84-.975a1.06 1.06 0 0 0-.355.002c-.247.052-.339.255-.255.654l.094.447-.106.022-.42-1.996.106-.023.037.176c.079.376.371.425.864.493l8.242 1.17.197.646-6.137 3.352 6.916.58.186.647-7.127 4.42c-.538.297-.673.411-.584.834l.037.176-.106.022ZM18.517 73.21c.02-.311.236-.514.572-.493.311.019.515.224.494.559-.02.311-.225.527-.56.506-.312-.019-.526-.236-.506-.572ZM22.554 65.8l-.103-.031.057-.184c.183-.584.04-.729-.591-.964l-6.513-2.371-.241-.076c-.252-.078-.388-.045-.542.447l-.143.459-.103-.033.526-1.683 7.49-.92c.26-.03.477-.039.546-.017l.017-.057c-.068-.022-.295-.18-.442-.315l-5.638-5.015.536-1.718.103.032-.121.39c-.175.56-.029.695.304.798.091.029.194.061.313.085l6.485 1.735c.66.181.846.151 1.042-.48l.079-.251.103.032-.933 2.99-.103-.032.129-.413c.193-.618.057-.748-.218-.834l-.206-.065-6.108-1.654a9.01 9.01 0 0 1-.508-.146l-.021.069c.034.01.204.151.412.33l5.9 5.222.07.06-.008.022-.09.01-7.683.933a1.548 1.548 0 0 1-.52-.024l-.015.046c.103.032.183.057.386.133l5.924 2.163c.1.044.188.084.257.105.275.086.433.022.63-.608l.128-.412.103.032-.69 2.21ZM24.8 48.202l-2.263-1.215c-.898-.483-1.623-.3-2.055.503-.562 1.046-.24 1.942.552 2.421l.644.374-.102.19-2.433-1.457.057-.105.543.332c.143.09.253.163.316.224l.06-.062c-.025-.028-.138-.198-.151-.3a2.771 2.771 0 0 1 .318-1.709c.733-1.363 1.722-1.758 2.832-1.162l5.222 2.806c.422.227.556.257.726-.06.034-.063.103-.217.103-.217l.086-.185.095.051c-.22.536-.317.92-.38 1.267l-.085-.046c-.254-.136-.647-.266-1.014-.395a4.41 4.41 0 0 1-.732-.284l-.057.105c1.098.999 1.167 1.935.758 2.696-.613 1.142-1.76 1.63-2.807 1.067-1.31-.704-1.591-2.313-.677-4.014l.443-.825Zm.19.102-.415.772c-.636 1.184-.253 2.398.952 3.045.877.472 1.704.302 2.096-.427.397-.74.147-1.896-1.365-2.708l-1.268-.682ZM31.497 45.717l-.085-.065.552-.726c.349-.458.338-.542-.12-.891l-6.101-4.645-.436.572c-.698.917-.764 1.38.116 2.125l.372.344-.143.148-2.106-1.83.082-.088.525.46 3.388-4.45-.58-.366.07-.112 2.314 1.536-.111.186-.423-.277c-.968-.63-1.382-.463-2.08.453l-.421.554 6.1 4.645c.459.35.543.338.892-.12l.538-.707.086.066-2.429 3.188ZM32.895 36.996c-1.81-1.905-1.808-4.324.019-6.06.582-.554 1.321-.908 2.12-.956a.588.588 0 0 1 .261.083l.045-.075a1.479 1.479 0 0 1-.266-.228l-.613-.61.07-.082L37 31.507l-.149.157-.794-.784c-.788-.741-2.21-.548-3.072.27-1.426 1.356-1.224 3.101.553 4.971 1.984 2.088 3.843 2.44 5.33 1.027.826-.785 1.197-1.998.807-3.018l.197-.088c.479 1.2.04 2.411-.873 3.28-1.826 1.735-4.268 1.605-6.103-.326ZM42.607 33.961l-.06-.09.35-.233c.478-.32.435-.493.115-.972l-3.845-5.758c-.32-.48-.462-.586-.942-.266l-.349.233-.06-.09 2.455-1.639.06.09-.26.173c-.478.32-.445.5-.125.979l1.739 2.605 2.735-1.826-1.74-2.605c-.32-.479-.472-.579-.952-.259l-.259.174-.06-.09 2.465-1.646.06.09-.36.24c-.478.32-.435.492-.115.972l3.845 5.758c.32.48.463.586.942.266l.359-.24.06.09-2.465 1.645-.06-.09.27-.18c.478-.319.435-.492.115-.971l-1.986-2.974-2.734 1.825 1.986 2.975c.32.479.473.578.952.259l.259-.174.06.09-2.455 1.64ZM51.634 28.4l-.044-.099.941-.423c.526-.236.556-.316.32-.84l-1.363-3.033-3.205-2.532c-.489-.386-.75-.584-1.067-.442l-.23.104-.039-.088 2.069-.93.04.088-.68.305.01.022c.167-.01.402.161.725.41L51.733 23c.1.074.26.226.3.287l.076-.035c-.018-.07-.02-.28-.015-.414l.172-3.13c.009-.214 0-.408-.063-.55-.079-.175-.259-.253-.598-.1l-.656.295-.04-.087 2.113-.95.039.088-.186.083c-.318.143-.35.42-.384 1.107l-.213 3.858 1.437 3.196c.236.526.316.556.841.32l.81-.364.044.098-3.776 1.698ZM62.598 24.499c-2.598.64-4.745-.647-5.38-3.221-.632-2.564.67-4.702 3.268-5.342 2.575-.636 4.721.652 5.354 3.215.635 2.575-.667 4.713-3.242 5.348Zm-.017-.219c2.109-.52 2.92-2.141 2.3-4.658-.687-2.784-2.235-3.997-4.39-3.465-2.12.523-2.929 2.156-2.311 4.66.69 2.797 2.223 4 4.401 3.463ZM76.385 22.48l.006.107a10.39 10.39 0 0 0-1.608.297l-.004-.096c.024-.241.024-.47.013-.685l-.084-1.678-.108.005c-.165 1.739-1.135 2.509-2.262 2.565-1.175.059-2.057-.534-2.116-1.708l-.306-6.088c-.011-.228-.15-.353-.378-.342l-.563.029-.005-.108.683-.035c.48-.024 1.095-.199 1.07-.69l-.002-.048.096-.005.358 7.131c.056 1.115.565 1.678 1.26 1.643 1.282-.065 2.084-1.33 1.992-3.164l-.236-4.698c-.029-.575-.104-.632-.68-.603l-.203.01-.005-.107 1.855-.142.005.096a3.79 3.79 0 0 0-.016.638l.355 7.083c.03.575.104.632.68.603l.203-.01ZM85.067 20.26c.308.05.487.288.432.62-.051.307-.276.488-.608.433-.307-.052-.5-.278-.445-.61.051-.308.29-.499.621-.444ZM92.043 25.018l.043-.1.176.077c.562.242.721.115 1.02-.488l3.043-6.228.1-.231c.105-.243.086-.381-.388-.586l-.44-.19.042-.1 1.62.7.127 7.545c.005.263-.01.479-.039.545l.055.023c.029-.066.21-.275.36-.407l5.578-5.08 1.653.713-.043.1-.375-.162c-.539-.233-.688-.101-.826.218-.038.088-.081.187-.117.302l-2.406 6.268c-.249.638-.239.825.367 1.087l.243.104-.043.1-2.876-1.242.043-.1.397.172c.595.257.738.136.853-.128l.085-.199 2.287-5.9c.074-.204.146-.369.198-.49l-.066-.029c-.014.033-.172.187-.371.376l-5.813 5.32-.067.062-.022-.01v-.09l-.122-7.74a1.546 1.546 0 0 1 .079-.514l-.044-.02a6.09 6.09 0 0 1-.173.37l-2.773 5.665c-.054.095-.103.178-.131.244-.114.265-.068.429.538.69l.397.172-.043.099-2.126-.918ZM107.16 33.018c-2.17-1.567-2.577-4.036-1.025-6.187 1.545-2.14 4.017-2.531 6.187-.965 2.151 1.552 2.558 4.022 1.013 6.163-1.552 2.15-4.025 2.54-6.175.989Zm.156-.154c1.761 1.27 3.522.84 5.039-1.261 1.679-2.326 1.602-4.29-.198-5.59-1.771-1.278-3.539-.838-5.049 1.254-1.686 2.335-1.612 4.283.208 5.597ZM114.575 35.106l.142.146-.326.37c-.97 1.033-.951 2.357-.154 3.172.756.772 1.757.8 2.511.06.738-.72.554-1.784.303-2.847-.284-1.183-.559-2.425.444-3.407.832-.814 2.045-.69 3.043.33.504.515.676 1.052.739 1.51.016.103-.046.297-.063.331l.076.043c.043-.076.129-.177.241-.303l.429-.47.084.086-1.932 2.075-.159-.146.343-.37c.644-.697.919-1.755.088-2.604-.688-.704-1.435-.729-2.112-.066-.712.697-.485 1.684-.225 2.739.283 1.216.54 2.56-.532 3.609-.926.906-2.299.739-3.415-.402-.521-.532-.744-1.07-.863-1.809-.016-.102.021-.39.073-.491l-.042-.026c-.069.101-.241.286-.335.395l-.524.546-.067-.069 2.233-2.402ZM121.268 40.184c2.142-1.523 4.536-1.178 5.996.876.466.655.712 1.437.646 2.235a.58.58 0 0 1-.119.246l.068.055c.065-.075.155-.154.263-.23l.69-.521.073.081-2.764 2.097-.135-.169.888-.676c.846-.674.856-2.11.168-3.078-1.14-1.604-2.896-1.651-4.999-.157-2.348 1.669-2.96 3.459-1.771 5.131.66.93 1.808 1.468 2.873 1.226l.06.208c-1.256.304-2.393-.301-3.123-1.328-1.46-2.054-.986-4.453 1.186-5.996ZM124.717 54.324c-1.115-2.432-.252-4.782 2.159-5.887 2.399-1.1 4.743-.222 5.859 2.21 1.105 2.412.242 4.761-2.158 5.862-2.41 1.105-4.754.226-5.86-2.185Zm.212-.057c.905 1.974 2.65 2.468 5.006 1.388 2.607-1.196 3.509-2.943 2.583-4.96-.91-1.986-2.666-2.475-5.011-1.4-2.618 1.201-3.514 2.932-2.578 4.972ZM136.116 59.188l.323 1.697-.165.032c-.177.033-.335.1-.491.179l-6.1 3.692c-.033.019-.246.12-.411.152l.022.118c.036-.007.177-.034.441.001l5.932.616.745-.387c.522-.27.679-.41.598-.835l-.052-.27.106-.02.504 2.64-.106.02-.214-1.12-.023.004c-.028.177-.272.37-.473.47l-6.19 3.22a2.336 2.336 0 0 1-.411.152l.032.165c.094-.018.24-.022.48.018l6.819 1.106c.139.022.262.024.356.006.247-.048.343-.25.267-.65l-.086-.448.106-.02.383 2.004-.106.02-.034-.177c-.072-.377-.363-.431-.855-.509l-8.218-1.328-.185-.648 6.2-3.235-6.904-.712-.173-.65 7.21-4.283c.544-.287.681-.399.6-.823l-.034-.177.107-.02Z"/></g><path d="M87.255 51c-1.71 1.872-3.602 4.1-5.664 6.605-5.659 6.873-9.396 13.087-18.242 27.804-.545.905-.248-3.499-.218-3.946.696-8.535 2.567-16.94 2.17-25.534-1.152-12.166-9.309 1.911-11.769 8.176-2.455 6.144-4.172 12.786-4.48 19.459-.128 2.004-.21 11.362 2.222 11.282-7.502-15.643 19.198-70.7 12.053-24.975-.394 5.126-1.252 9.483-1.28 15.361-.009 1.112.642 2.061 1.714 1.517.897-.561 1.398-1.586 1.985-2.465 1.663-2.642 3.287-5.313 4.992-7.927 4.503-6.961 9.104-13.88 14.28-20.315C86.43 54.25 87.884 52.64 89.442 51h-2.186Z" fill="url(#na)"/><path d="M97.469 51c-.886 9.328-2.535 18.593-4.518 27.767-1.804 8.336-3.286 16.343-6.43 25.682-.313.929-1.025 2.462-.65 3.422.057.145.263.176.358.05 1.374-1.822 4.96-14.489 6.097-19.255C96.926 69.39 99.031 57.457 99 51h-1.531Z" fill="url(#nb)"/><defs><radialGradient id="na" cx="0" cy="0" r="1" gradientUnits="userSpaceOnUse" gradientTransform="matrix(0 28.5 -25 0 74 79.5)"><stop stop-color="#E7B3A5"/><stop offset="1" stop-color="#A2645D"/></radialGradient><radialGradient id="nb" cx="0" cy="0" r="1" gradientUnits="userSpaceOnUse" gradientTransform="matrix(0 28.5 -6.61765 0 92.382 79.5)"><stop stop-color="#AE847F"/><stop offset="1" stop-color="#A2645D"/></radialGradient></defs></svg><svg fill="none" viewBox="0 0 12 13" id="news-icon" xmlns="http://www.w3.org/2000/svg"><g stroke="#B38A77" stroke-width=".7"><rect x=".35" y="1.35" width="11.3" height="11.3" rx="1.65"/><path d="M3 0v3m6-3v3M2 6h8M2 8h8m-8 2h5"/></g></svg><svg fill="none" viewBox="0 0 21 20" id="phone-icon" xmlns="http://www.w3.org/2000/svg"><path d="M7.864 1.827A2.111 2.111 0 0 0 5.904.5H3a2 2 0 0 0-2 2c0 9.389 7.611 17 17 17a2 2 0 0 0 2-2v-2.904a2.11 2.11 0 0 0-1.327-1.96l-2.783-1.113a2.11 2.11 0 0 0-2.135.338l-.718.6a2.112 2.112 0 0 1-2.845-.13l-2.023-2.024a2.11 2.11 0 0 1-.13-2.844l.6-.718a2.112 2.112 0 0 0 .338-2.136L7.864 1.827Z" stroke="#685C56" stroke-linecap="round" stroke-linejoin="round"/></svg><svg fill="none" viewBox="0 0 13 11" id="sort-icon" xmlns="http://www.w3.org/2000/svg"><g fill="#685C56"><path d="M11.249.542v-.25h-.5v.25h.5Zm-.427 9.767a.25.25 0 0 0 .354 0l1.59-1.59a.25.25 0 0 0-.353-.354L11 9.779 9.585 8.365a.25.25 0 0 0-.354.353l1.591 1.591ZM10.75.542v9.59h.5V.543h-.5ZM1.75 10.133v.25h.5v-.25h-.5ZM2.177.366a.25.25 0 0 0-.354 0l-1.59 1.59a.25.25 0 0 0 .353.354L2 .896 3.414 2.31a.25.25 0 0 0 .354-.353L2.177.366Zm.073 9.767V.543h-.5v9.59h.5Z"/></g></svg><svg fill="none" viewBox="0 0 75 75" id="telegram-icon" xmlns="http://www.w3.org/2000/svg"><path d="M72.497 37.5c0 19.33-15.67 35-35 35s-35-15.67-35-35 15.67-35 35-35 35 15.67 35 35Z" fill="#24A1DE" stroke="#fff" stroke-width="5"/><path d="m18.27 36.066 22.039-8.905c2.176-.928 9.553-3.896 9.553-3.896s3.406-1.299 3.121 1.855c-.094 1.298-.852 5.843-1.608 10.76L49.01 50.441s-.189 2.134-1.796 2.505c-1.608.37-4.257-1.299-4.73-1.67-.378-.278-7.094-4.452-9.553-6.493-.662-.556-1.42-1.67.094-2.968 3.406-3.06 7.473-6.864 9.931-9.275 1.135-1.114 2.27-3.71-2.46-.556L27.16 40.797s-1.513.928-4.35.093c-2.838-.836-6.15-1.948-6.15-1.948s-2.27-1.391 1.608-2.875l.002-.001Z" fill="#fff"/></svg><svg fill="none" viewBox="0 0 42 43" id="whatsapp-icon" xmlns="http://www.w3.org/2000/svg"><g filter="url(#sa)"><path d="M2.156 18.58c0 3.275.859 6.473 2.494 9.29L2 37.5l9.898-2.584a18.738 18.738 0 0 0 8.922 2.262h.009c10.29 0 18.667-8.336 18.671-18.583.002-4.965-1.939-9.633-5.464-13.145C30.512 1.937 25.824.002 20.83 0 10.537 0 2.16 8.335 2.156 18.58Z" fill="#59C33C"/><path d="M20.82 37.178h.009c10.29 0 18.667-8.336 18.671-18.583.002-4.965-1.939-9.633-5.464-13.145C30.512 1.937 25.824.002 20.83 0m-.009 37.178.001-1.5m0 1.5a18.738 18.738 0 0 1-8.923-2.262l-8.222 2.146.46-1.67m16.684 1.786v-1.5h.001m0 0h.008c9.468 0 17.167-7.671 17.171-17.083.002-4.565-1.78-8.851-5.022-12.083-3.243-3.23-7.55-5.01-12.15-5.012V0m-.007 35.678a17.239 17.239 0 0 1-8.208-2.08l-.52-.283-.574.15-7.383 1.927M20.829 0l-.001 1.5m0-1.5C10.538 0 2.162 8.335 2.157 18.58M20.828 1.5 3.656 18.581M20.828 1.5c-9.47 0-17.168 7.67-17.172 17.081M20.828 1.5 3.656 18.581m-1.5 0c0 3.274.859 6.472 2.494 9.29L2.46 35.83l1.676-.438m-1.98-16.811h1.5m-1.5 0h1.5m.48 16.811 1.96-7.124.167-.606-.316-.544a16.978 16.978 0 0 1-2.29-8.537m0 0" stroke="#fff" stroke-width="3"/></g><path fill-rule="evenodd" clip-rule="evenodd" d="M16.326 11.266c-.332-.728-.68-.743-.997-.756-.257-.01-.553-.01-.848-.01-.295 0-.775.11-1.18.548-.407.438-1.551 1.497-1.551 3.65 0 2.153 1.587 4.235 1.808 4.527.221.292 3.064 4.853 7.565 6.607 3.741 1.458 4.503 1.168 5.315 1.096.812-.073 2.62-1.059 2.99-2.081.368-1.022.368-1.898.258-2.08-.11-.183-.407-.293-.85-.512-.442-.219-2.62-1.277-3.026-1.424-.406-.146-.7-.218-.996.22-.295.437-1.143 1.423-1.402 1.715-.258.292-.517.33-.96.11-.442-.22-1.869-.681-3.56-2.172-1.317-1.16-2.206-2.594-2.465-3.031-.258-.438-.027-.675.195-.893.198-.197.442-.511.664-.767.221-.255.295-.437.442-.73.148-.292.074-.547-.036-.767-.11-.219-.972-2.383-1.366-3.249" fill="#fff"/><defs><filter id="sa" x="0" y="0" width="41.5" height="42.5" filterUnits="userSpaceOnUse" color-interpolation-filters="sRGB"><feFlood flood-opacity="0" result="BackgroundImageFix"/><feColorMatrix in="SourceAlpha" values="0 0 0 0 0 0 0 0 0 0 0 0 0 0 0 0 0 0 127 0" result="hardAlpha"/><feOffset dy="3"/><feGaussianBlur stdDeviation="1"/><feComposite in2="hardAlpha" operator="out"/><feColorMatrix values="0 0 0 0 0 0 0 0 0 0 0 0 0 0 0 0 0 0 0.05 0"/><feBlend in2="BackgroundImageFix" result="effect1_dropShadow_970_1294"/><feBlend in="SourceGraphic" in2="effect1_dropShadow_970_1294" result="shape"/></filter></defs></svg></svg>