<svg width="14" height="14" viewBox="0 0 14 14" fill="none" xmlns="http://www.w3.org/2000/svg">
<g id="Group 92">
<rect id="Rectangle 117" x="0.35" y="0.35" width="13.3" height="1.3" rx="0.65" stroke="#B38A77" stroke-width="0.7"/>
<path id="Vector 27" d="M1 2V13H13V2" stroke="#B38A77" stroke-width="0.7"/>
<line id="Line 50" y1="7.65" x2="14" y2="7.65" stroke="#B38A77" stroke-width="0.7"/>
<path id="Rectangle 120" d="M6 13V10.5C6 9.67157 5.32843 9 4.5 9V9C3.67157 9 3 9.67157 3 10.5V13" stroke="#B38A77" stroke-width="0.7"/>
<path id="Rectangle 121" d="M11 13V10.5C11 9.67157 10.3284 9 9.5 9V9C8.67157 9 8 9.67157 8 10.5V13" stroke="#B38A77" stroke-width="0.7"/>
<path id="Rectangle 122" d="M6 8V5.5C6 4.67157 5.32843 4 4.5 4V4C3.67157 4 3 4.67157 3 5.5V8" stroke="#B38A77" stroke-width="0.7"/>
<path id="Rectangle 123" d="M11 8V5.5C11 4.67157 10.3284 4 9.5 4V4C8.67157 4 8 4.67157 8 5.5V8" stroke="#B38A77" stroke-width="0.7"/>
</g>
</svg>
