<svg width="23" height="19" viewBox="0 0 23 19" fill="none" xmlns="http://www.w3.org/2000/svg">
<g id="Group 35">
<path id="Vector" d="M15.5203 18.4884C17.262 18.4884 18.6739 17.0765 18.6739 15.3348C18.6739 13.5931 17.262 12.1812 15.5203 12.1812C13.7786 12.1812 12.3667 13.5931 12.3667 15.3348C12.3667 17.0765 13.7786 18.4884 15.5203 18.4884Z" stroke="white" stroke-miterlimit="10"/>
<path id="Vector_2" d="M0.134277 15.3345H12.4045" stroke="white" stroke-miterlimit="10"/>
<path id="Vector_3" d="M23.0002 15.3345H18.6738" stroke="white" stroke-miterlimit="10"/>
<path id="Vector_4" d="M7.47978 6.81894C9.22148 6.81894 10.6334 5.40702 10.6334 3.66533C10.6334 1.92364 9.22148 0.511719 7.47978 0.511719C5.73809 0.511719 4.32617 1.92364 4.32617 3.66533C4.32617 5.40702 5.73809 6.81894 7.47978 6.81894Z" stroke="white" stroke-miterlimit="10"/>
<path id="Vector_5" d="M22.8659 3.66553H10.5957" stroke="white" stroke-miterlimit="10"/>
<path id="Vector_6" d="M0 3.66553H4.32637" stroke="white" stroke-miterlimit="10"/>
</g>
</svg>
