<svg width="192" height="187" viewBox="0 0 192 187" fill="none" xmlns="http://www.w3.org/2000/svg">
<g id="&#208;&#187;&#208;&#190;&#208;&#179;&#208;&#190;">
<rect id="Rectangle 17" width="192" height="187" fill="url(#paint0_linear_620_380)"/>
<path id="Vector" d="M109.028 39.2258C107.108 41.3416 104.983 43.86 102.667 46.6898C96.3121 54.4568 92.1141 61.4788 82.1796 78.1095C81.5681 79.1325 81.9011 74.1559 81.9354 73.6505C82.7163 64.0055 84.818 54.5072 84.3725 44.7963C83.0786 31.0478 73.9177 46.9554 71.1544 54.0355C68.3971 60.9786 66.4692 68.4846 66.1222 76.0248C65.979 78.2892 65.8872 88.8647 68.6187 88.7736C60.1928 71.0966 90.1801 8.87883 82.1545 60.5508C81.7126 66.3436 80.7486 71.2672 80.7174 77.9098C80.7076 79.1661 81.4384 80.2389 82.6423 79.6243C83.6497 78.9897 84.2127 77.8317 84.8719 76.8384C86.7398 73.8535 88.5637 70.8343 90.4788 67.881C95.536 60.0138 100.703 52.195 106.517 44.9236C108.102 42.8977 109.734 41.0792 111.484 39.2258H109.028Z" fill="url(#paint1_radial_620_380)"/>
<path id="Vector_2" d="M120.135 39.2258C119.167 49.6989 117.367 60.1019 115.201 70.4025C113.232 79.7628 111.614 88.7525 108.18 99.2386C107.839 100.281 107.062 102.003 107.471 103.081C107.533 103.244 107.758 103.279 107.862 103.137C109.362 101.092 113.277 86.8693 114.519 81.5172C119.541 59.8757 121.84 46.4761 121.806 39.2258H120.135Z" fill="url(#paint2_radial_620_380)"/>
<g id="MATCHYOU">
<path d="M29.3585 125.316H27.8679L30.045 111.509L35.0659 122.551L40.1848 111.489L42.2246 125.316H40.734L39.4984 116.216L35.0462 125.865L30.653 116.216L29.3585 125.316Z" fill="white"/>
<path d="M59.2933 125.316L57.7635 121.629H52.1934L50.6244 125.316H49.0161L55.0373 111.607L60.9016 125.316H59.2933ZM52.7622 120.256H57.1947L54.9981 115.019L52.7622 120.256Z" fill="white"/>
<path d="M74.206 113.607H71.0287V125.316H69.5774V113.607H66.4001V112.234H74.206V113.607Z" fill="white"/>
<path d="M90.7716 113.313V115.117C90.2485 114.594 89.6798 114.189 89.0652 113.901C88.3199 113.561 87.5681 113.391 86.8097 113.391C85.3061 113.391 84.0509 113.921 83.0441 114.98C82.0504 116.026 81.5535 117.314 81.5535 118.844C81.5535 120.491 82.0961 121.792 83.1814 122.747C84.2797 123.701 85.4957 124.179 86.8294 124.179C87.6662 124.179 88.4768 123.976 89.2614 123.571C89.8105 123.296 90.3139 122.93 90.7716 122.472V124.277C89.5817 125.127 88.2676 125.551 86.8294 125.551C84.8942 125.551 83.2794 124.904 81.985 123.61C80.7036 122.315 80.0629 120.72 80.0629 118.824C80.0629 116.876 80.7101 115.255 82.0046 113.96C83.3121 112.666 84.9465 112.019 86.9078 112.019C88.3461 112.019 89.634 112.45 90.7716 113.313Z" fill="white"/>
<path d="M100.195 112.234V117.549H106.903V112.234H108.354V125.316H106.903V118.922H100.195V125.316H98.7439V112.234H100.195Z" fill="white"/>
<path d="M119.791 125.316V119.687L115.495 112.234H117.182L120.516 118.079L123.89 112.234H125.576L121.242 119.687V125.316H119.791Z" fill="white"/>
<path d="M143.167 123.61C141.859 124.904 140.251 125.551 138.342 125.551C136.433 125.551 134.818 124.904 133.497 123.61C132.19 122.315 131.536 120.707 131.536 118.785C131.536 116.85 132.196 115.242 133.517 113.96C134.838 112.666 136.446 112.019 138.342 112.019C140.238 112.019 141.846 112.666 143.167 113.96C144.487 115.242 145.147 116.85 145.147 118.785C145.147 120.707 144.487 122.315 143.167 123.61ZM142.107 114.96C141.074 113.914 139.819 113.391 138.342 113.391C136.864 113.391 135.609 113.914 134.576 114.96C133.543 116.007 133.027 117.281 133.027 118.785C133.027 120.289 133.543 121.564 134.576 122.61C135.609 123.656 136.864 124.179 138.342 124.179C139.819 124.179 141.074 123.656 142.107 122.61C143.14 121.564 143.657 120.289 143.657 118.785C143.657 117.281 143.14 116.007 142.107 114.96Z" fill="white"/>
<path d="M154.561 112.234V120.256C154.561 120.753 154.567 121.139 154.58 121.413C154.606 121.688 154.698 122.028 154.855 122.433C155.025 122.825 155.273 123.159 155.6 123.433C156.188 123.93 156.908 124.179 157.757 124.179C158.607 124.179 159.326 123.93 159.915 123.433C160.242 123.159 160.484 122.825 160.641 122.433C160.811 122.028 160.902 121.688 160.915 121.413C160.941 121.139 160.954 120.753 160.954 120.256V112.234H162.406V120.648C162.406 121.982 162.131 123.028 161.582 123.786C161.177 124.335 160.641 124.767 159.974 125.081C159.32 125.395 158.581 125.551 157.757 125.551C156.934 125.551 156.188 125.395 155.522 125.081C154.868 124.767 154.338 124.335 153.933 123.786C153.384 123.028 153.109 121.982 153.109 120.648V112.234H154.561Z" fill="white"/>
</g>
<g id="HOME CHANGES EVERYTHING">
<path d="M55.7338 133.182H56.1901V135.639H55.7338V133.182ZM54.4633 135.639H54.0071V133.182H54.4633V135.639ZM55.7689 134.586H54.4247V134.196H55.7689V134.586Z" fill="#D7A69C"/>
<path d="M59.1227 135.674C58.9308 135.674 58.7542 135.642 58.5927 135.579C58.4313 135.516 58.2909 135.428 58.1716 135.316C58.0522 135.201 57.9598 135.068 57.8943 134.916C57.8288 134.761 57.796 134.593 57.796 134.41C57.796 134.228 57.8288 134.061 57.8943 133.909C57.9598 133.754 58.0522 133.621 58.1716 133.508C58.2909 133.394 58.4313 133.305 58.5927 133.242C58.7542 133.179 58.9296 133.147 59.1192 133.147C59.311 133.147 59.4865 133.179 59.6456 133.242C59.8071 133.305 59.9475 133.394 60.0668 133.508C60.1861 133.621 60.2785 133.754 60.344 133.909C60.4096 134.061 60.4423 134.228 60.4423 134.41C60.4423 134.593 60.4096 134.761 60.344 134.916C60.2785 135.07 60.1861 135.204 60.0668 135.316C59.9475 135.428 59.8071 135.516 59.6456 135.579C59.4865 135.642 59.3122 135.674 59.1227 135.674ZM59.1192 135.274C59.2432 135.274 59.3578 135.253 59.4631 135.211C59.5684 135.169 59.6597 135.109 59.7369 135.032C59.8141 134.952 59.8738 134.861 59.9159 134.758C59.9603 134.653 59.9826 134.537 59.9826 134.41C59.9826 134.284 59.9603 134.169 59.9159 134.067C59.8738 133.961 59.8141 133.87 59.7369 133.793C59.6597 133.713 59.5684 133.652 59.4631 133.61C59.3578 133.568 59.2432 133.547 59.1192 133.547C58.9952 133.547 58.8805 133.568 58.7752 133.61C58.6723 133.652 58.581 133.713 58.5015 133.793C58.4243 133.87 58.3634 133.961 58.319 134.067C58.2768 134.169 58.2558 134.284 58.2558 134.41C58.2558 134.534 58.2768 134.649 58.319 134.754C58.3634 134.86 58.4243 134.952 58.5015 135.032C58.5787 135.109 58.6699 135.169 58.7752 135.211C58.8805 135.253 58.9952 135.274 59.1192 135.274Z" fill="#D7A69C"/>
<path d="M62.049 135.639V133.182H62.4246L63.4985 134.976H63.302L64.3584 133.182H64.7339L64.7375 135.639H64.3058L64.3023 133.859H64.3935L63.495 135.358H63.2915L62.3789 133.859H62.4842V135.639H62.049Z" fill="#D7A69C"/>
<path d="M66.9453 134.203H68.1667V134.579H66.9453V134.203ZM66.9804 135.256H68.3667V135.639H66.5242V133.182H68.3176V133.565H66.9804V135.256Z" fill="#D7A69C"/>
<path d="M73.2287 135.674C73.0415 135.674 72.8672 135.644 72.7057 135.583C72.5466 135.52 72.4074 135.432 72.2881 135.319C72.1711 135.205 72.0798 135.07 72.0143 134.916C71.9488 134.761 71.916 134.593 71.916 134.41C71.916 134.228 71.9488 134.059 72.0143 133.905C72.0798 133.751 72.1722 133.617 72.2916 133.505C72.4109 133.39 72.5501 133.303 72.7092 133.242C72.8683 133.179 73.0426 133.147 73.2322 133.147C73.4334 133.147 73.6171 133.182 73.7832 133.252C73.9493 133.32 74.0897 133.422 74.2043 133.558L73.9095 133.835C73.8206 133.739 73.7212 133.668 73.6112 133.621C73.5012 133.572 73.3819 133.547 73.2532 133.547C73.1245 133.547 73.0064 133.568 72.8987 133.61C72.7935 133.652 72.701 133.712 72.6215 133.789C72.5443 133.866 72.4834 133.958 72.439 134.063C72.3969 134.168 72.3758 134.284 72.3758 134.41C72.3758 134.537 72.3969 134.653 72.439 134.758C72.4834 134.863 72.5443 134.954 72.6215 135.032C72.701 135.109 72.7935 135.169 72.8987 135.211C73.0064 135.253 73.1245 135.274 73.2532 135.274C73.3819 135.274 73.5012 135.25 73.6112 135.204C73.7212 135.155 73.8206 135.081 73.9095 134.983L74.2043 135.263C74.0897 135.397 73.9493 135.498 73.7832 135.569C73.6171 135.639 73.4322 135.674 73.2287 135.674Z" fill="#D7A69C"/>
<path d="M77.4914 133.182H77.9476V135.639H77.4914V133.182ZM76.2209 135.639H75.7646V133.182H76.2209V135.639ZM77.5265 134.586H76.1823V134.196H77.5265V134.586Z" fill="#D7A69C"/>
<path d="M79.3816 135.639L80.4871 133.182H80.9364L82.0454 135.639H81.5681L80.617 133.424H80.7995L79.8519 135.639H79.3816ZM79.8905 135.07L80.0133 134.712H81.34L81.4628 135.07H79.8905Z" fill="#D7A69C"/>
<path d="M83.481 135.639V133.182H83.8565L85.3973 135.074H85.2112V133.182H85.664V135.639H85.2885L83.7477 133.747H83.9337V135.639H83.481Z" fill="#D7A69C"/>
<path d="M88.5931 135.674C88.4012 135.674 88.2245 135.644 88.0631 135.583C87.904 135.52 87.7648 135.432 87.6454 135.319C87.5261 135.205 87.4337 135.07 87.3682 134.916C87.3027 134.761 87.2699 134.593 87.2699 134.41C87.2699 134.228 87.3027 134.059 87.3682 133.905C87.4337 133.751 87.5261 133.617 87.6454 133.505C87.7671 133.39 87.9087 133.303 88.0701 133.242C88.2316 133.179 88.4082 133.147 88.6001 133.147C88.8083 133.147 88.9955 133.181 89.1616 133.249C89.3301 133.317 89.4716 133.416 89.5863 133.547L89.2985 133.828C89.2026 133.732 89.0985 133.662 88.9861 133.617C88.8762 133.57 88.7545 133.547 88.6211 133.547C88.4924 133.547 88.3731 133.568 88.2631 133.61C88.1532 133.652 88.0584 133.712 87.9789 133.789C87.8993 133.866 87.8373 133.958 87.7929 134.063C87.7507 134.168 87.7297 134.284 87.7297 134.41C87.7297 134.534 87.7507 134.649 87.7929 134.754C87.8373 134.86 87.8993 134.952 87.9789 135.032C88.0584 135.109 88.152 135.169 88.2596 135.211C88.3673 135.253 88.4866 135.274 88.6176 135.274C88.7393 135.274 88.8563 135.255 88.9686 135.218C89.0832 135.178 89.192 135.112 89.295 135.021L89.5547 135.362C89.426 135.465 89.2763 135.543 89.1055 135.597C88.937 135.648 88.7662 135.674 88.5931 135.674ZM89.123 135.302V134.382H89.5547V135.362L89.123 135.302Z" fill="#D7A69C"/>
<path d="M91.7007 134.203H92.9221V134.579H91.7007V134.203ZM91.7358 135.256H93.1222V135.639H91.2796V133.182H93.073V133.565H91.7358V135.256Z" fill="#D7A69C"/>
<path d="M95.5155 135.674C95.3236 135.674 95.1399 135.647 94.9645 135.593C94.789 135.537 94.6498 135.466 94.5468 135.379L94.7048 135.025C94.803 135.102 94.9247 135.166 95.0698 135.218C95.2148 135.269 95.3634 135.295 95.5155 135.295C95.6442 135.295 95.7483 135.281 95.8278 135.253C95.9074 135.225 95.9659 135.187 96.0033 135.14C96.0408 135.091 96.0595 135.036 96.0595 134.976C96.0595 134.901 96.0326 134.841 95.9788 134.797C95.9249 134.75 95.8548 134.713 95.7682 134.688C95.684 134.66 95.5892 134.634 95.4839 134.611C95.3809 134.587 95.2768 134.56 95.1715 134.53C95.0686 134.497 94.9738 134.456 94.8873 134.407C94.803 134.355 94.734 134.288 94.6802 134.203C94.6264 134.119 94.5995 134.012 94.5995 133.88C94.5995 133.747 94.6346 133.625 94.7048 133.515C94.7773 133.403 94.8861 133.314 95.0312 133.249C95.1786 133.181 95.3646 133.147 95.5892 133.147C95.7366 133.147 95.8828 133.166 96.0279 133.203C96.173 133.241 96.2993 133.294 96.4069 133.365L96.2631 133.719C96.1531 133.654 96.0396 133.606 95.9226 133.575C95.8056 133.542 95.6933 133.526 95.5857 133.526C95.4593 133.526 95.3564 133.541 95.2768 133.572C95.1996 133.602 95.1423 133.642 95.1049 133.691C95.0698 133.74 95.0522 133.796 95.0522 133.859C95.0522 133.934 95.0779 133.995 95.1294 134.042C95.1832 134.086 95.2523 134.121 95.3365 134.147C95.4231 134.173 95.519 134.199 95.6243 134.224C95.7296 134.248 95.8337 134.275 95.9366 134.305C96.0419 134.336 96.1367 134.375 96.2209 134.424C96.3075 134.474 96.3765 134.54 96.428 134.625C96.4818 134.709 96.5087 134.815 96.5087 134.944C96.5087 135.075 96.4725 135.197 96.3999 135.309C96.3297 135.419 96.2209 135.508 96.0735 135.576C95.9261 135.641 95.7401 135.674 95.5155 135.674Z" fill="#D7A69C"/>
<path d="M100.598 134.203H101.82V134.579H100.598V134.203ZM100.634 135.256H102.02V135.639H100.177V133.182H101.971V133.565H100.634V135.256Z" fill="#D7A69C"/>
<path d="M104.344 135.639L103.27 133.182H103.765L104.723 135.404H104.439L105.407 133.182H105.864L104.793 135.639H104.344Z" fill="#D7A69C"/>
<path d="M107.667 134.203H108.888V134.579H107.667V134.203ZM107.702 135.256H109.088V135.639H107.246V133.182H109.039V133.565H107.702V135.256Z" fill="#D7A69C"/>
<path d="M110.72 135.639V133.182H111.731C111.949 133.182 112.135 133.217 112.289 133.287C112.446 133.358 112.566 133.458 112.65 133.589C112.735 133.72 112.777 133.876 112.777 134.056C112.777 134.236 112.735 134.392 112.65 134.523C112.566 134.651 112.446 134.751 112.289 134.821C112.135 134.889 111.949 134.923 111.731 134.923H110.973L111.176 134.716V135.639H110.72ZM112.328 135.639L111.706 134.747H112.194L112.819 135.639H112.328ZM111.176 134.765L110.973 134.547H111.71C111.911 134.547 112.062 134.504 112.163 134.417C112.266 134.331 112.317 134.21 112.317 134.056C112.317 133.899 112.266 133.779 112.163 133.694C112.062 133.61 111.911 133.568 111.71 133.568H110.973L111.176 133.344V134.765Z" fill="#D7A69C"/>
<path d="M114.98 135.639V134.667L115.082 134.947L114.015 133.182H114.502L115.359 134.603H115.085L115.948 133.182H116.398L115.331 134.947L115.436 134.667V135.639H114.98Z" fill="#D7A69C"/>
<path d="M118.284 135.639V133.568H117.469V133.182H119.554V133.568H118.74V135.639H118.284Z" fill="#D7A69C"/>
<path d="M122.746 133.182H123.203V135.639H122.746V133.182ZM121.476 135.639H121.02V133.182H121.476V135.639ZM122.782 134.586H121.437V134.196H122.782V134.586Z" fill="#D7A69C"/>
<path d="M124.984 135.639V133.182H125.44V135.639H124.984Z" fill="#D7A69C"/>
<path d="M127.228 135.639V133.182H127.604L129.144 135.074H128.958V133.182H129.411V135.639H129.035L127.495 133.747H127.681V135.639H127.228Z" fill="#D7A69C"/>
<path d="M132.34 135.674C132.148 135.674 131.972 135.644 131.81 135.583C131.651 135.52 131.512 135.432 131.392 135.319C131.273 135.205 131.181 135.07 131.115 134.916C131.05 134.761 131.017 134.593 131.017 134.41C131.017 134.228 131.05 134.059 131.115 133.905C131.181 133.751 131.273 133.617 131.392 133.505C131.514 133.39 131.656 133.303 131.817 133.242C131.979 133.179 132.155 133.147 132.347 133.147C132.555 133.147 132.743 133.181 132.909 133.249C133.077 133.317 133.219 133.416 133.333 133.547L133.046 133.828C132.95 133.732 132.845 133.662 132.733 133.617C132.623 133.57 132.502 133.547 132.368 133.547C132.239 133.547 132.12 133.568 132.01 133.61C131.9 133.652 131.805 133.712 131.726 133.789C131.646 133.866 131.584 133.958 131.54 134.063C131.498 134.168 131.477 134.284 131.477 134.41C131.477 134.534 131.498 134.649 131.54 134.754C131.584 134.86 131.646 134.952 131.726 135.032C131.805 135.109 131.899 135.169 132.007 135.211C132.114 135.253 132.234 135.274 132.365 135.274C132.486 135.274 132.603 135.255 132.716 135.218C132.83 135.178 132.939 135.112 133.042 135.021L133.302 135.362C133.173 135.465 133.023 135.543 132.853 135.597C132.684 135.648 132.513 135.674 132.34 135.674ZM132.87 135.302V134.382H133.302V135.362L132.87 135.302Z" fill="#D7A69C"/>
</g>
</g>
<defs>
<linearGradient id="paint0_linear_620_380" x1="192.739" y1="-2.24545" x2="-15.2231" y2="168.454" gradientUnits="userSpaceOnUse">
<stop stop-color="#434343"/>
<stop offset="1" stop-color="#101010"/>
</linearGradient>
<radialGradient id="paint1_radial_620_380" cx="0" cy="0" r="1" gradientUnits="userSpaceOnUse" gradientTransform="translate(88.7741 64) rotate(90) scale(24.7742 22.7097)">
<stop stop-color="#E7B3A5"/>
<stop offset="1" stop-color="#A2645D"/>
</radialGradient>
<radialGradient id="paint2_radial_620_380" cx="0" cy="0" r="1" gradientUnits="userSpaceOnUse" gradientTransform="translate(114.581 71.2258) rotate(90) scale(32 7.22581)">
<stop stop-color="#AE847F"/>
<stop offset="1" stop-color="#A2645D"/>
</radialGradient>
</defs>
</svg>
