<svg width="152" height="152" viewBox="0 0 152 152" fill="none" xmlns="http://www.w3.org/2000/svg">
<g id="&#208;&#186;&#209;&#128;&#209;&#131;&#208;&#179; matchyou">
<circle id="Ellipse 5" cx="76" cy="76" r="76" fill="white"/>
<g id="Vector">
<path d="M132.963 79.0624C132.951 79.3742 132.739 79.5822 132.403 79.5692C132.091 79.5572 131.883 79.357 131.896 79.0212C131.908 78.7095 132.108 78.489 132.444 78.502C132.756 78.514 132.976 78.7267 132.963 79.0624Z" fill="#A99E94"/>
<path d="M129.04 86.8502L129.143 86.8804L129.09 87.0647C128.918 87.6523 129.064 87.7948 129.7 88.0174L136.256 90.2658C136.337 90.2893 136.418 90.3128 136.498 90.3363C136.752 90.4101 136.887 90.3746 137.031 89.8792L137.166 89.4184L137.269 89.4486L136.776 91.1421L129.305 92.2021C129.044 92.2386 128.828 92.2507 128.759 92.2305L128.742 92.2881C128.811 92.3083 129.041 92.4628 129.191 92.5938L134.922 97.5016L134.419 99.2297L134.315 99.1994L134.429 98.8077C134.594 98.2432 134.445 98.1122 134.11 98.0148C134.018 97.988 133.915 97.9578 133.796 97.9357L127.279 96.3238C126.615 96.1555 126.431 96.1891 126.246 96.8227L126.172 97.0762L126.068 97.046L126.945 94.0391L127.048 94.0693L126.927 94.484C126.746 95.1061 126.884 95.2338 127.16 95.3144C127.218 95.3312 127.287 95.3513 127.368 95.3748L133.506 96.9139C133.717 96.9628 133.89 97.0131 134.017 97.0501L134.037 96.9809C134.002 96.9709 133.83 96.8331 133.618 96.659L127.62 91.5487L127.55 91.4906L127.557 91.4676L127.647 91.4565L135.311 90.3778C135.572 90.3413 135.797 90.382 135.832 90.3921L135.845 90.346C135.742 90.3158 135.661 90.2923 135.457 90.2203L129.493 88.1696C129.392 88.1278 129.304 88.0895 129.234 88.0693C128.958 87.9887 128.801 88.0555 128.616 88.6891L128.495 89.1039L128.392 89.0736L129.04 86.8502Z" fill="#A99E94"/>
<path d="M127.092 104.533L129.377 105.707C130.284 106.173 131.005 105.977 131.422 105.165C131.965 104.109 131.626 103.219 130.826 102.755L130.175 102.393L130.273 102.201L132.732 103.613L132.677 103.719L132.128 103.397C131.984 103.309 131.872 103.238 131.808 103.179L131.749 103.242C131.775 103.269 131.892 103.437 131.907 103.539C131.982 103.996 131.949 104.613 131.62 105.253C130.912 106.63 129.931 107.044 128.81 106.468L123.537 103.759C123.11 103.54 122.976 103.512 122.812 103.832C122.779 103.896 122.713 104.051 122.713 104.051L122.63 104.238L122.534 104.189C122.744 103.649 122.834 103.263 122.892 102.915L122.977 102.959C123.233 103.091 123.629 103.213 123.998 103.335C124.292 103.419 124.565 103.518 124.736 103.606L124.79 103.499C123.674 102.521 123.588 101.586 123.982 100.818C124.575 99.6651 125.712 99.1569 126.769 99.6997C128.093 100.38 128.403 101.982 127.52 103.701L127.092 104.533ZM126.9 104.435L127.3 103.655C127.915 102.46 127.509 101.253 126.292 100.628C125.406 100.173 124.583 100.358 124.205 101.094C123.821 101.841 124.093 102.993 125.619 103.777L126.9 104.435Z" fill="#A99E94"/>
<path d="M120.563 106.939L120.65 107.002L120.114 107.74C119.775 108.206 119.788 108.29 120.254 108.628L126.455 113.139L126.879 112.557C127.556 111.625 127.612 111.161 126.716 110.435L126.336 110.1L126.476 109.949L128.621 111.732L128.541 111.822L128.006 111.374L124.717 115.896L125.305 116.25L125.237 116.364L122.89 114.879L122.997 114.69L123.426 114.957C124.407 115.567 124.817 115.39 125.495 114.459L125.904 113.896L119.703 109.385C119.238 109.046 119.154 109.06 118.815 109.525L118.293 110.244L118.205 110.18L120.563 106.939Z" fill="#A99E94"/>
<path d="M119.14 115.911C120.984 117.783 121.026 120.201 119.231 121.97C118.659 122.535 117.926 122.903 117.128 122.965C117.043 122.964 116.942 122.929 116.866 122.886L116.823 122.962C116.907 123.014 117 123.091 117.093 123.185L117.716 123.784L117.648 123.868L115.136 121.474L115.282 121.314L116.091 122.083C116.892 122.81 118.31 122.591 119.156 121.758C120.558 120.376 120.325 118.635 118.514 116.797C116.492 114.746 114.628 114.427 113.166 115.867C112.354 116.668 112.006 117.887 112.414 118.9L112.218 118.992C111.718 117.8 112.134 116.581 113.032 115.697C114.826 113.928 117.27 114.014 119.14 115.911Z" fill="#A99E94"/>
<path d="M109.426 119.134L109.487 119.222L109.142 119.462C108.669 119.79 108.716 119.963 109.044 120.436L112.993 126.123C113.322 126.596 113.467 126.7 113.94 126.371L114.285 126.132L114.347 126.22L111.922 127.904L111.86 127.815L112.117 127.638C112.59 127.309 112.553 127.13 112.225 126.657L110.438 124.084L107.737 125.96L109.524 128.532C109.852 129.005 110.007 129.102 110.481 128.774L110.737 128.596L110.798 128.684L108.364 130.375L108.302 130.286L108.657 130.04C109.13 129.711 109.084 129.539 108.755 129.066L104.806 123.379C104.477 122.906 104.332 122.802 103.859 123.13L103.504 123.377L103.443 123.288L105.877 121.598L105.939 121.686L105.673 121.871C105.2 122.2 105.246 122.372 105.575 122.845L107.614 125.782L110.315 123.907L108.275 120.97C107.947 120.496 107.792 120.399 107.319 120.728L107.062 120.906L107.001 120.817L109.426 119.134Z" fill="#A99E94"/>
<path d="M100.664 124.739L100.71 124.836L99.7784 125.28C99.2585 125.528 99.2302 125.608 99.478 126.128L100.908 129.129L104.169 131.589C104.666 131.964 104.931 132.156 105.245 132.007L105.472 131.898L105.514 131.985L103.466 132.961L103.425 132.874L104.097 132.554L104.086 132.532C103.92 132.545 103.681 132.38 103.353 132.137L100.685 130.139C100.585 130.067 100.421 129.919 100.379 129.859L100.304 129.895C100.324 129.966 100.33 130.175 100.328 130.309L100.226 133.442C100.222 133.657 100.235 133.85 100.302 133.991C100.384 134.164 100.565 134.237 100.901 134.077L101.551 133.767L101.592 133.854L99.5018 134.851L99.4605 134.764L99.6447 134.676C99.9588 134.527 99.9855 134.248 100.004 133.561L100.13 129.699L98.6223 126.536C98.3744 126.016 98.2944 125.988 97.7745 126.236L96.9729 126.618L96.9264 126.52L100.664 124.739Z" fill="#A99E94"/>
<path d="M89.5892 128.9C92.1747 128.21 94.3455 129.456 95.0295 132.018C95.7103 134.569 94.4493 136.731 91.8638 137.421C89.3015 138.105 87.1307 136.859 86.4498 134.308C85.7659 131.746 87.0269 129.584 89.5892 128.9ZM89.6101 129.118C87.5116 129.678 86.7313 131.314 87.3997 133.819C88.1394 136.59 89.7096 137.773 91.8545 137.2C93.9646 136.637 94.7419 134.989 94.0765 132.496C93.3337 129.714 91.7782 128.539 89.6101 129.118Z" fill="#A99E94"/>
<path d="M76.0473 131.139L76.0394 131.031C76.6121 130.965 77.1795 130.827 77.6393 130.697L77.6463 130.792C77.628 131.034 77.6327 131.263 77.6485 131.478L77.7715 133.154L77.8792 133.146C78.004 131.404 78.9566 130.612 80.0816 130.529C81.2544 130.443 82.1507 131.015 82.2368 132.188L82.6832 138.268C82.6999 138.495 82.8412 138.617 83.0686 138.6L83.6311 138.559L83.639 138.667L82.9568 138.717C82.4781 138.752 81.8663 138.941 81.9024 139.432L81.9059 139.48L81.8101 139.487L81.2873 132.366C81.2056 131.253 80.6838 130.702 79.9897 130.753C78.7091 130.847 77.9371 132.131 78.0715 133.962L78.416 138.653C78.4582 139.228 78.5344 139.282 79.1088 139.24L79.3123 139.225L79.3202 139.333L77.4687 139.517L77.4617 139.421C77.4817 139.203 77.4788 138.999 77.463 138.783L76.9436 131.71C76.9014 131.136 76.8252 131.081 76.2508 131.124L76.0473 131.139Z" fill="#A99E94"/>
<path d="M67.2263 133.476C66.9177 133.431 66.7337 133.197 66.7827 132.865C66.8282 132.556 67.0497 132.371 67.3821 132.42C67.6907 132.465 67.8883 132.688 67.8393 133.021C67.7938 133.329 67.5587 133.525 67.2263 133.476Z" fill="#A99E94"/>
<path d="M60.0943 128.776L60.0533 128.876L59.8757 128.803C59.3094 128.571 59.1523 128.701 58.8642 129.31L55.9388 135.594C55.9069 135.671 55.8751 135.749 55.8432 135.827C55.7431 136.071 55.7642 136.209 56.2417 136.405L56.6858 136.587L56.6449 136.687L55.0126 136.018L54.7441 128.477C54.7352 128.214 54.7459 127.998 54.7733 127.931L54.7177 127.909C54.6904 127.975 54.5126 128.188 54.3666 128.322L48.8833 133.506L47.2178 132.824L47.2587 132.724L47.6363 132.878C48.1803 133.101 48.3263 132.967 48.4583 132.645C48.4947 132.556 48.5356 132.456 48.57 132.34L50.8583 126.029C51.0955 125.387 51.0815 125.199 50.4708 124.949L50.2265 124.849L50.2675 124.749L53.1655 125.937L53.1246 126.037L52.7249 125.873C52.1253 125.627 51.9838 125.751 51.8746 126.017C51.8519 126.073 51.8246 126.139 51.7927 126.217L49.6167 132.16C49.5459 132.364 49.4776 132.531 49.4276 132.653L49.4942 132.68C49.5079 132.647 49.6629 132.49 49.8584 132.298L55.5711 126.871L55.6362 126.807L55.6584 126.816L55.6599 126.907L55.9267 134.642C55.9357 134.905 55.8714 135.125 55.8577 135.158L55.9022 135.176C55.9431 135.077 55.975 134.999 56.068 134.804L58.7346 129.088C58.7866 128.992 58.8341 128.908 58.8614 128.842C58.9706 128.575 58.9208 128.412 58.31 128.162L57.9103 127.998L57.9513 127.898L60.0943 128.776Z" fill="#A99E94"/>
<path d="M45.0409 121.137C47.2445 122.655 47.7061 125.115 46.2015 127.299C44.7036 129.473 42.2403 129.918 40.0367 128.4C37.8529 126.895 37.3913 124.435 38.8891 122.261C40.3938 120.077 42.8571 119.632 45.0409 121.137ZM44.8887 121.294C43.1001 120.062 41.3488 120.531 39.8782 122.665C38.2509 125.027 38.3707 126.99 40.1988 128.249C41.9973 129.488 43.7554 129.009 45.2192 126.885C46.8532 124.513 46.7366 122.567 44.8887 121.294Z" fill="#A99E94"/>
<path d="M37.6009 119.177L37.4551 119.034L37.7735 118.657C38.7209 117.603 38.6725 116.28 37.8577 115.483C37.0857 114.727 36.0843 114.721 35.3458 115.476C34.6241 116.214 34.8308 117.272 35.1054 118.33C35.4152 119.506 35.7172 120.742 34.7353 121.745C33.9212 122.577 32.7067 122.48 31.686 121.481C31.1714 120.978 30.9874 120.445 30.9145 119.988C30.8964 119.886 30.9537 119.69 30.9703 119.656L30.8934 119.615C30.8519 119.692 30.7681 119.794 30.6592 119.923L30.2401 120.402L30.1544 120.319L32.0406 118.202L32.2034 118.345L31.8681 118.722C31.2394 119.433 30.9879 120.496 31.8371 121.327C32.5404 122.015 33.2872 122.024 33.9502 121.346C34.6468 120.634 34.3985 119.653 34.1155 118.604C33.8053 117.394 33.5192 116.056 34.5682 114.984C35.4746 114.057 36.8508 114.195 37.9916 115.311C38.5234 115.832 38.7583 116.364 38.8936 117.101C38.9117 117.202 38.8809 117.491 38.8311 117.593L38.8738 117.618C38.9406 117.516 39.1082 117.327 39.2003 117.216L39.7119 116.659L39.7805 116.726L37.6009 119.177Z" fill="#A99E94"/>
<path d="M30.9379 114.373C28.8297 115.943 26.4284 115.651 24.9237 113.629C24.4437 112.984 24.1801 112.208 24.2287 111.409C24.241 111.325 24.2893 111.229 24.3424 111.16L24.273 111.107C24.2103 111.183 24.1212 111.264 24.0153 111.343L23.3365 111.878L23.2624 111.799L25.9799 109.642L26.1185 109.808L25.2448 110.503C24.4142 111.196 24.4354 112.631 25.1447 113.584C26.3197 115.163 28.0765 115.172 30.1462 113.631C32.4565 111.912 33.0295 110.109 31.8043 108.463C31.1236 107.548 29.9639 107.035 28.9045 107.3L28.8405 107.094C30.0897 106.762 31.2396 107.342 31.9919 108.353C33.4965 110.375 33.0749 112.783 30.9379 114.373Z" fill="#A99E94"/>
<path d="M27.151 100.239C28.3204 102.646 27.5099 105.014 25.1245 106.173C22.75 107.327 20.3872 106.5 19.2178 104.093C18.0588 101.708 18.8693 99.3395 21.2439 98.1858C23.6292 97.0268 25.992 97.8534 27.151 100.239ZM26.941 100.301C25.9918 98.3471 24.2366 97.8924 21.9052 99.0252C19.3256 100.279 18.4629 102.045 19.433 104.042C20.3874 106.006 22.1534 106.456 24.474 105.328C27.0644 104.07 27.9216 102.319 26.941 100.301Z" fill="#A99E94"/>
<path d="M15.6312 95.4995L15.2751 93.8086L15.4395 93.774C15.6157 93.7369 15.7726 93.667 15.9271 93.5854L21.9558 89.7773C21.9885 89.7581 22.1993 89.6524 22.3637 89.6178L22.3389 89.5004C22.3037 89.5078 22.1628 89.5375 21.8989 89.5072L15.9559 89.0052L15.2186 89.4057C14.7013 89.6864 14.5474 89.8291 14.6364 90.2519L14.6933 90.5219L14.5876 90.5442L14.0337 87.9139L14.1394 87.8916L14.3743 89.0072L14.3978 89.0022C14.4219 88.8255 14.6623 88.6277 14.8613 88.5244L20.9888 85.186C21.1903 85.0945 21.3145 85.0438 21.3967 85.0265L21.3621 84.8621C21.2682 84.8819 21.1223 84.8881 20.8819 84.8529L14.0421 83.8775C13.903 83.8578 13.7806 83.859 13.6867 83.8788C13.4401 83.9307 13.348 84.1341 13.4321 84.5333L13.5261 84.9795L13.4204 85.0018L13 83.0056L13.1057 82.9833L13.1428 83.1594C13.2219 83.5352 13.5142 83.584 14.0068 83.6519L22.249 84.8225L22.4462 85.4677L16.3094 88.8204L23.2252 89.3996L23.4106 90.0473L16.2844 94.4667C15.7461 94.764 15.6108 94.8784 15.6998 95.3011L15.7369 95.4772L15.6312 95.4995Z" fill="#A99E94"/>
<path d="M18.5172 73.2101C18.5364 72.8987 18.7534 72.6957 19.0887 72.7165C19.4001 72.7357 19.6039 72.9407 19.5832 73.276C19.5639 73.5874 19.3582 73.8032 19.0228 73.7824C18.7114 73.7632 18.4965 73.5455 18.5172 73.2101Z" fill="#A99E94"/>
<path d="M22.5543 65.8009L22.4512 65.7688L22.5084 65.5855C22.6907 65.0013 22.5475 64.856 21.9167 64.6214L15.4036 62.2495C15.3234 62.2245 15.2432 62.1994 15.163 62.1744C14.911 62.0958 14.775 62.1288 14.6213 62.6213L14.4783 63.0795L14.3752 63.0474L14.9007 61.3635L22.3904 60.4449C22.6517 60.4133 22.8679 60.4054 22.9366 60.4268L22.9545 60.3695C22.8857 60.3481 22.6587 60.1893 22.5119 60.0554L16.874 55.0402L17.4102 53.3219L17.5133 53.3541L17.3918 53.7436C17.2166 54.3049 17.3634 54.4387 17.6956 54.5424C17.7872 54.571 17.8903 54.6031 18.0085 54.6274L24.4941 56.3623C25.1542 56.5431 25.3396 56.513 25.5362 55.8829L25.6149 55.6309L25.718 55.6631L24.785 58.6529L24.6819 58.6207L24.8105 58.2083C25.0036 57.5898 24.8682 57.4595 24.5933 57.3737C24.536 57.3559 24.4673 57.3344 24.3871 57.3094L18.2788 55.6546C18.069 55.6017 17.8972 55.5481 17.7712 55.5087L17.7497 55.5775C17.7841 55.5882 17.9538 55.7292 18.1622 55.9073L24.0622 61.1301L24.1317 61.1894L24.1245 61.2124L24.0336 61.2217L16.3506 62.1553C16.0894 62.1869 15.8646 62.1419 15.8302 62.1312L15.8159 62.177C15.919 62.2092 15.9992 62.2342 16.2018 62.31L22.1264 64.4732C22.2259 64.5168 22.314 64.5569 22.3827 64.5783C22.6576 64.6641 22.8158 64.6003 23.0124 63.9703L23.1411 63.5579L23.2442 63.5901L22.5543 65.8009Z" fill="#A99E94"/>
<path d="M24.7993 48.202L22.5372 46.9866C21.6386 46.5038 20.9138 46.6866 20.4822 47.49C19.9199 48.5365 20.2426 49.4318 21.0339 49.9114L21.6779 50.2847L21.5757 50.475L19.1434 49.0183L19.2002 48.9126L19.7434 49.2454C19.8857 49.3354 19.9963 49.4085 20.059 49.4694L20.1199 49.4067C20.0938 49.3791 19.9807 49.2094 19.9676 49.107C19.9005 48.6487 19.9455 48.0326 20.2862 47.3983C21.0189 46.0347 22.0076 45.6396 23.1176 46.2359L28.3396 49.0415C28.7624 49.2687 28.8958 49.2994 29.0661 48.9823C29.1002 48.9189 29.1692 48.7652 29.1692 48.7652L29.2551 48.5798L29.3503 48.631C29.1305 49.1668 29.0334 49.5505 28.9695 49.8976L28.8849 49.8521C28.6312 49.7158 28.2377 49.5861 27.871 49.4573C27.5784 49.3681 27.3076 49.2635 27.1385 49.1727L27.0817 49.2784C28.1798 50.277 28.249 51.2132 27.8401 51.9743C27.2267 53.116 26.0795 53.6031 25.033 53.0408C23.7222 52.3366 23.442 50.7284 24.3563 49.0265L24.7993 48.202ZM24.9896 48.3042L24.575 49.0759C23.9389 50.2598 24.322 51.4737 25.5271 52.1212C26.4045 52.5926 27.2309 52.4235 27.6228 51.6942C28.0204 50.9542 27.7698 49.7979 26.2581 48.9857L24.9896 48.3042Z" fill="#A99E94"/>
<path d="M31.4975 45.7173L31.4116 45.6519L31.9641 44.9263C32.313 44.4681 32.3016 44.384 31.8433 44.035L25.7427 39.3896L25.3065 39.9625C24.6086 40.879 24.5428 41.3417 25.423 42.0874L25.7949 42.4309L25.6522 42.5786L23.5463 40.7488L23.6285 40.6606L24.1532 41.1205L27.5409 36.6715L26.9604 36.3048L27.0308 36.1925L29.3453 37.7286L29.2335 37.915L28.8107 37.6383C27.8433 37.0073 27.4292 37.1747 26.7313 38.0912L26.3097 38.6449L32.4104 43.2903C32.8687 43.6393 32.9527 43.6279 33.3017 43.1696L33.8397 42.4631L33.9256 42.5286L31.4975 45.7173Z" fill="#A99E94"/>
<path d="M32.8952 36.9962C31.0848 35.0913 31.0869 32.6722 32.9136 30.9362C33.4964 30.3823 34.2354 30.0277 35.0344 29.9801C35.1193 29.9822 35.2202 30.0188 35.2955 30.0631L35.3398 29.9879C35.2563 29.9348 35.1649 29.8561 35.074 29.7604L34.4614 29.1507L34.5314 29.0676L36.9988 31.507L36.8505 31.6645L36.0556 30.8803C35.2681 30.1388 33.8457 30.3318 32.9845 31.1502C31.558 32.506 31.7598 34.2511 33.5371 36.1213C35.5211 38.2089 37.3795 38.5617 38.8669 37.1481C39.6933 36.3628 40.0636 35.1499 39.6737 34.1299L39.8712 34.0416C40.3499 35.2421 39.9117 36.4532 38.9983 37.3212C37.1717 39.0572 34.7304 38.9272 32.8952 36.9962Z" fill="#A99E94"/>
<path d="M42.6069 33.9612L42.5469 33.8714L42.8962 33.6382C43.3753 33.3183 43.3319 33.1453 43.0121 32.6662L39.1675 26.9077C38.8477 26.4286 38.7045 26.3222 38.2255 26.642L37.8762 26.8752L37.8162 26.7854L40.2713 25.1463L40.3313 25.2361L40.0718 25.4094C39.5928 25.7292 39.6262 25.9089 39.946 26.3879L41.685 28.9928L44.4196 27.1671L42.6806 24.5623C42.3608 24.0832 42.2076 23.9835 41.7285 24.3033L41.4691 24.4766L41.4091 24.3867L43.8742 22.741L43.9342 22.8308L43.5749 23.0707C43.0958 23.3905 43.1392 23.5635 43.459 24.0426L47.3036 29.8012C47.6234 30.2802 47.7666 30.3866 48.2456 30.0668L48.6049 29.8269L48.6649 29.9168L46.1998 31.5625L46.1398 31.4727L46.4093 31.2928C46.8883 30.973 46.8449 30.7999 46.5251 30.3209L44.5395 27.3468L41.805 29.1724L43.7905 32.1465C44.1103 32.6256 44.2635 32.7253 44.7426 32.4055L45.002 32.2323L45.062 32.3221L42.6069 33.9612Z" fill="#A99E94"/>
<path d="M51.6344 28.3996L51.5901 28.3011L52.5314 27.878C53.0567 27.6418 53.0869 27.5624 52.8507 27.0371L51.4876 24.0054L48.2832 21.4727C47.7942 21.0873 47.5338 20.8886 47.2164 21.0313L46.9866 21.1346L46.9472 21.0471L49.0158 20.1171L49.0551 20.2046L48.3766 20.5097L48.3864 20.5316C48.5533 20.5224 48.788 20.6931 49.1107 20.9427L51.7331 23.0004C51.8321 23.0743 51.9923 23.2259 52.0328 23.2866L52.1094 23.2522C52.0908 23.1816 52.0887 22.972 52.0942 22.838L52.266 19.7083C52.2748 19.4938 52.2667 19.3001 52.2027 19.1579C52.124 18.9827 51.9445 18.9055 51.6052 19.0581L50.9486 19.3533L50.9092 19.2658L53.0215 18.3161L53.0609 18.4036L52.8748 18.4873C52.5574 18.63 52.5245 18.9079 52.4909 19.594L52.2784 23.4525L53.7153 26.6483C53.9515 27.1737 54.0308 27.2038 54.5562 26.9676L55.3661 26.6035L55.4104 26.702L51.6344 28.3996Z" fill="#A99E94"/>
<path d="M62.598 24.4988C59.9999 25.1397 57.8531 23.8524 57.218 21.2775C56.5857 18.7144 57.8875 16.5764 60.4857 15.9355C63.0605 15.3003 65.2073 16.5876 65.8395 19.1508C66.4747 21.7256 65.1729 23.8636 62.598 24.4988ZM62.5813 24.2804C64.69 23.7602 65.5013 22.1388 64.8805 19.6222C64.1936 16.8377 62.6462 15.625 60.4908 16.1567C58.3703 16.6797 57.562 18.3129 58.1799 20.8178C58.8696 23.614 60.4026 24.8179 62.5813 24.2804Z" fill="#A99E94"/>
<path d="M76.3852 22.4795L76.3906 22.5873C75.8165 22.6402 75.2461 22.7649 74.7835 22.8843L74.7786 22.7884C74.8026 22.5469 74.8031 22.3186 74.7923 22.1029L74.708 20.425L74.6002 20.4304C74.4352 22.1688 73.4645 22.9385 72.3379 22.995C71.1634 23.054 70.2806 22.4615 70.2216 21.287L69.916 15.1987C69.9045 14.971 69.7661 14.8458 69.5384 14.8572L68.9751 14.8855L68.9697 14.7776L69.6528 14.7433C70.1322 14.7192 70.7482 14.5441 70.7235 14.0528L70.7211 14.0048L70.817 14L71.175 21.131C71.231 22.2456 71.7398 22.8088 72.435 22.7739C73.7174 22.7095 74.5189 21.4437 74.4268 19.61L74.191 14.912C74.1621 14.3367 74.0872 14.2804 73.5119 14.3093L73.3081 14.3195L73.3027 14.2116L75.158 14.0704L75.1628 14.1663C75.1377 14.3838 75.1359 14.5882 75.1467 14.8039L75.5024 21.887C75.5312 22.4623 75.6062 22.5186 76.1814 22.4897L76.3852 22.4795Z" fill="#A99E94"/>
<path d="M85.0673 20.2594C85.375 20.3109 85.5544 20.5477 85.4991 20.8791C85.4477 21.1868 85.2227 21.3682 84.8913 21.3129C84.5836 21.2614 84.3903 21.0345 84.4457 20.7031C84.4971 20.3954 84.7359 20.2041 85.0673 20.2594Z" fill="#A99E94"/>
<path d="M92.0429 25.0176L92.0857 24.9185L92.262 24.9946C92.8238 25.2372 92.9833 25.11 93.2828 24.5073L96.325 18.279C96.3583 18.2019 96.3916 18.1248 96.4249 18.0477C96.5295 17.8053 96.511 17.6666 96.0373 17.462L95.5966 17.2718L95.6394 17.1726L97.2589 17.8719L97.3865 25.4166C97.3905 25.6797 97.3758 25.8956 97.3472 25.9617L97.4023 25.9855C97.4308 25.9194 97.6126 25.7103 97.7611 25.5783L103.34 20.4977L104.993 21.2113L104.95 21.3105L104.575 21.1487C104.036 20.9156 103.887 21.0476 103.749 21.3671C103.711 21.4552 103.668 21.5543 103.632 21.6693L101.226 27.9371C100.977 28.5746 100.987 28.7621 101.593 29.0237L101.836 29.1284L101.793 29.2276L98.9174 27.986L98.9602 27.8868L99.3568 28.0581C99.9517 28.315 100.095 28.194 100.21 27.9296C100.233 27.8745 100.262 27.8084 100.295 27.7313L102.582 21.8303C102.656 21.6272 102.728 21.462 102.78 21.3408L102.714 21.3122C102.7 21.3453 102.542 21.4993 102.343 21.6878L96.5297 27.0073L96.4634 27.0701L96.4414 27.0606L96.4416 26.9692L96.3193 19.2307C96.3153 18.9676 96.3836 18.7487 96.3979 18.7157L96.3538 18.6967C96.311 18.7958 96.2777 18.8729 96.1811 19.0665L93.4082 24.7314C93.3544 24.8258 93.3053 24.9092 93.2768 24.9753C93.1626 25.2397 93.2094 25.4037 93.8153 25.6653L94.2119 25.8366L94.1691 25.9357L92.0429 25.0176Z" fill="#A99E94"/>
<path d="M107.16 33.0177C104.99 31.4514 104.583 28.9817 106.135 26.8314C107.68 24.6908 110.152 24.3 112.322 25.8662C114.473 27.4184 114.88 29.8882 113.335 32.0287C111.783 34.179 109.31 34.5699 107.16 33.0177ZM107.316 32.8636C109.077 34.1349 110.838 33.7042 112.355 31.6026C114.034 29.2771 113.957 27.3126 112.157 26.0133C110.386 24.735 108.618 25.1753 107.108 27.2673C105.422 29.6024 105.496 31.5502 107.316 32.8636Z" fill="#A99E94"/>
<path d="M114.575 35.1059L114.717 35.2517L114.391 35.6215C113.421 36.6547 113.44 37.9787 114.237 38.7935C114.993 39.5655 115.994 39.5934 116.748 38.8549C117.486 38.1331 117.302 37.0704 117.051 36.0069C116.767 34.8243 116.492 33.5824 117.495 32.6005C118.327 31.7864 119.54 31.91 120.538 32.9307C121.042 33.4453 121.214 33.9818 121.277 34.4407C121.293 34.5427 121.231 34.7372 121.214 34.771L121.29 34.8142C121.333 34.7383 121.419 34.6374 121.531 34.5113L121.96 34.0408L122.044 34.1266L120.112 36.2015L119.953 36.0555L120.296 35.6859C120.94 34.9886 121.215 33.9309 120.384 33.0817C119.696 32.3784 118.949 32.3533 118.272 33.0163C117.56 33.7128 117.787 34.6997 118.047 35.7547C118.33 36.9713 118.587 38.3148 117.515 39.3639C116.589 40.2702 115.216 40.1025 114.1 38.9618C113.579 38.43 113.356 37.8929 113.237 37.1534C113.221 37.0514 113.258 36.7633 113.31 36.662L113.268 36.6361C113.199 36.7372 113.027 36.922 112.933 37.0312L112.409 37.5771L112.342 37.5085L114.575 35.1059Z" fill="#A99E94"/>
<path d="M121.268 40.184C123.41 38.6615 125.804 39.006 127.264 41.06C127.73 41.7154 127.976 42.4971 127.91 43.2949C127.896 43.3786 127.846 43.4733 127.791 43.5415L127.859 43.5961C127.924 43.5209 128.014 43.4416 128.122 43.3651L128.812 42.845L128.885 42.9261L126.121 45.0233L125.986 44.8542L126.874 44.1783C127.72 43.5037 127.73 42.0683 127.042 41.1C125.902 39.4959 124.146 39.4486 122.043 40.9433C119.695 42.6118 119.083 44.4016 120.272 46.0741C120.932 47.0033 122.08 47.5416 123.145 47.3L123.205 47.508C121.949 47.812 120.812 47.2067 120.082 46.1797C118.622 44.1257 119.096 41.7274 121.268 40.184Z" fill="#A99E94"/>
<path d="M124.717 54.3244C123.602 51.892 124.465 49.5423 126.876 48.4369C129.275 47.3364 131.619 48.2154 132.735 50.6479C133.84 53.0585 132.977 55.4081 130.577 56.5086C128.167 57.6141 125.823 56.735 124.717 54.3244ZM124.929 54.2671C125.834 56.2414 127.579 56.7351 129.935 55.6547C132.542 54.4592 133.444 52.7122 132.518 50.6943C131.608 48.7091 129.852 48.2203 127.507 49.2958C124.889 50.4963 123.993 52.2273 124.929 54.2671Z" fill="#A99E94"/>
<path d="M136.116 59.1878L136.439 60.8852L136.274 60.9166C136.097 60.9504 135.939 61.0172 135.783 61.0958L129.683 64.7881C129.65 64.8067 129.437 64.9083 129.272 64.9398L129.294 65.0577C129.33 65.0509 129.471 65.024 129.735 65.0593L135.667 65.6747L136.412 65.2883C136.934 65.0176 137.091 64.8778 137.01 64.4534L136.958 64.1823L137.064 64.1621L137.568 66.8025L137.462 66.8227L137.248 65.7029L137.225 65.7074C137.197 65.8837 136.953 66.0768 136.752 66.1762L130.562 69.3971C130.359 69.4847 130.234 69.533 130.151 69.5487L130.183 69.7137C130.277 69.6958 130.423 69.6923 130.663 69.7321L137.482 70.8379C137.621 70.8604 137.744 70.8615 137.838 70.8435C138.085 70.7963 138.181 70.5947 138.105 70.1939L138.019 69.746L138.125 69.7258L138.508 71.7297L138.402 71.7499L138.368 71.5731C138.296 71.1959 138.005 71.1415 137.513 71.0642L129.295 69.7364L129.11 69.0876L135.31 65.8527L128.406 65.1415L128.233 64.4904L135.443 60.2079C135.987 59.9209 136.124 59.8092 136.043 59.3848L136.009 59.208L136.116 59.1878Z" fill="#A99E94"/>
</g>
<g id="Vector_2">
<path d="M87.2548 51C85.5453 52.8723 83.6527 55.1008 81.5911 57.605C75.9323 64.4782 72.1945 70.692 63.3488 85.4088C62.8044 86.3141 63.1009 81.9102 63.1314 81.463C63.8267 72.928 65.6981 64.5228 65.3014 55.9294C64.1494 43.7631 55.9925 57.84 53.532 64.1053C51.077 70.2494 49.3604 76.8915 49.0514 83.564C48.9239 85.5678 48.8422 94.9263 51.2743 94.8456C43.7719 79.203 70.4724 24.1455 63.3265 69.8708C62.933 74.997 62.0747 79.354 62.0469 85.2321C62.0382 86.3438 62.6889 87.2931 63.7608 86.7493C64.6578 86.1877 65.1592 85.1629 65.7461 84.284C67.4093 81.6425 69.0332 78.9708 70.7384 76.3574C75.2413 69.3956 79.8418 62.4767 85.0189 56.0421C86.4298 54.2493 87.8832 52.6401 89.4412 51H87.2548Z" fill="url(#paint0_radial_781_286)"/>
<path d="M97.4689 51C96.5827 60.3275 94.9344 69.5928 92.9505 78.7667C91.1474 87.1032 89.6651 95.1097 86.5203 104.449C86.2078 105.378 85.4965 106.911 85.871 107.871C85.9277 108.016 86.1339 108.047 86.229 107.921C87.6032 106.099 91.1888 93.4325 92.326 88.6658C96.9254 69.3913 99.031 57.4573 98.9997 51H97.4689Z" fill="url(#paint1_radial_781_286)"/>
</g>
</g>
<defs>
<radialGradient id="paint0_radial_781_286" cx="0" cy="0" r="1" gradientUnits="userSpaceOnUse" gradientTransform="translate(74 79.5) rotate(90) scale(28.5 25)">
<stop stop-color="#E7B3A5"/>
<stop offset="1" stop-color="#A2645D"/>
</radialGradient>
<radialGradient id="paint1_radial_781_286" cx="0" cy="0" r="1" gradientUnits="userSpaceOnUse" gradientTransform="translate(92.3824 79.5) rotate(90) scale(28.5 6.61765)">
<stop stop-color="#AE847F"/>
<stop offset="1" stop-color="#A2645D"/>
</radialGradient>
</defs>
</svg>
