<svg width="21" height="20" viewBox="0 0 21 20" fill="none" xmlns="http://www.w3.org/2000/svg">
<path id="Vector" d="M7.86353 1.82707C7.54294 1.02556 6.76669 0.5 5.90347 0.5H2.99995C1.89541 0.5 1 1.39521 1 2.49978C1 11.8886 8.61118 19.5 17.9998 19.5C19.1043 19.5 19.9995 18.6045 19.9995 17.4999L20 14.5959C20 13.7326 19.4746 12.9565 18.6731 12.6359L15.8903 11.5231C15.1703 11.2351 14.3506 11.3647 13.7549 11.8611L13.0367 12.4602C12.198 13.1592 10.9638 13.1036 10.1917 12.3315L8.16938 10.3072C7.39733 9.53516 7.34028 8.30197 8.03926 7.46317L8.63815 6.74499C9.13455 6.14929 9.2653 5.32934 8.97733 4.60938L7.86353 1.82707Z" stroke="#685C56" stroke-linecap="round" stroke-linejoin="round"/>
</svg>
