<svg width="13" height="11" viewBox="0 0 13 11" fill="none" xmlns="http://www.w3.org/2000/svg">
<g id="Group 31">
<path id="Arrow 1" d="M11.249 0.54248L11.249 0.29248L10.749 0.29248L10.749 0.54248L11.249 0.54248ZM10.8222 10.3094C10.9199 10.4071 11.0782 10.4071 11.1758 10.3094L12.7668 8.71843C12.8644 8.6208 12.8644 8.46251 12.7668 8.36488C12.6692 8.26725 12.5109 8.26725 12.4132 8.36488L10.999 9.77909L9.58481 8.36488C9.48718 8.26725 9.32889 8.26725 9.23126 8.36488C9.13363 8.46251 9.13363 8.6208 9.23126 8.71843L10.8222 10.3094ZM10.749 0.54248L10.749 10.1326L11.249 10.1326L11.249 0.54248L10.749 0.54248Z" fill="#685C56"/>
<path id="Arrow 2" d="M1.75 10.1328L1.75 10.3828L2.25 10.3828L2.25 10.1328L1.75 10.1328ZM2.17678 0.365871C2.07914 0.268241 1.92085 0.268241 1.82322 0.365871L0.232232 1.95686C0.134601 2.05449 0.134601 2.21278 0.232232 2.31042C0.329864 2.40805 0.488155 2.40805 0.585786 2.31042L2 0.896202L3.41421 2.31042C3.51184 2.40805 3.67014 2.40805 3.76777 2.31042C3.8654 2.21278 3.8654 2.05449 3.76777 1.95686L2.17678 0.365871ZM2.25 10.1328L2.25 0.542648L1.75 0.542648L1.75 10.1328L2.25 10.1328Z" fill="#685C56"/>
</g>
</svg>
