<svg width="75" height="75" viewBox="0 0 75 75" fill="none" xmlns="http://www.w3.org/2000/svg">
<g id="Group 87">
<path id="Vector" d="M72.4967 37.4999C72.4967 56.8299 56.8267 72.4999 37.4968 72.4999C18.1668 72.4999 2.49683 56.8299 2.49683 37.4999C2.49683 18.17 18.1668 2.5 37.4968 2.5C56.8267 2.5 72.4967 18.17 72.4967 37.4999Z" fill="#24A1DE" stroke="white" stroke-width="5"/>
<path id="Vector_2" d="M18.2695 36.0658L40.309 27.1608C42.4849 26.2328 49.8621 23.2649 49.8621 23.2649C49.8621 23.2649 53.2678 21.9663 52.9831 25.1196C52.8886 26.4182 52.1314 30.9628 51.3754 35.8792L49.0104 50.4421C49.0104 50.4421 48.8214 52.576 47.2136 52.9466C45.6059 53.3173 42.9574 51.648 42.4837 51.2773C42.1057 50.9993 35.39 46.8254 32.9306 44.7842C32.2691 44.2282 31.5118 43.1149 33.0251 41.8163C36.4308 38.7557 40.498 34.9525 42.9562 32.5406C44.0914 31.4273 45.2267 28.8301 40.4967 31.9846L27.1599 40.7969C27.1599 40.7969 25.6466 41.7248 22.8092 40.8896C19.9717 40.0543 16.6605 38.9422 16.6605 38.9422C16.6605 38.9422 14.39 37.5509 18.2682 36.067L18.2695 36.0658Z" fill="white"/>
</g>
</svg>
