<svg width="42" height="43" viewBox="0 0 42 43" fill="none" xmlns="http://www.w3.org/2000/svg">
<g id="Group 89">
<g id="Vector" filter="url(#filter0_d_970_1294)">
<path d="M2.15648 18.5808C2.15566 21.8553 3.01466 25.0527 4.64952 27.8704L2 37.5L11.898 34.9159C14.625 36.3958 17.6958 37.1763 20.8205 37.1779H20.8286C31.1187 37.1779 39.4959 28.8416 39.5 18.5954C39.5024 13.6302 37.5611 8.96184 34.0363 5.44963C30.5115 1.93743 25.8237 0.00243396 20.8286 0C10.537 0 2.16055 8.3355 2.15648 18.5808Z" fill="#59C33C"/>
<path d="M20.8205 37.1779H20.8286C31.1187 37.1779 39.4959 28.8416 39.5 18.5954C39.5024 13.6302 37.5611 8.96184 34.0363 5.44963C30.5115 1.93743 25.8237 0.00243396 20.8286 0M20.8205 37.1779L20.8213 35.6779M20.8205 37.1779C17.6958 37.1763 14.625 36.3958 11.898 34.9159L3.67614 37.0624L4.1357 35.3922M20.8205 37.1779V35.6779H20.8213M20.8213 35.6779H20.8286C30.2967 35.6779 37.9963 28.0066 38 18.5948V18.5947C38.0022 14.0297 36.2207 9.74368 32.9776 6.51219C29.7349 3.28116 25.4283 1.50243 20.8286 1.5V0M20.8213 35.6779C17.9454 35.6764 15.1202 34.9579 12.6135 33.5976L12.0926 33.3149L11.5191 33.4646L4.1357 35.3922M20.8286 0L20.8279 1.5M20.8286 0C10.537 0 2.16055 8.3355 2.15648 18.5808M20.8279 1.5L3.65648 18.5814M20.8279 1.5C11.3585 1.50039 3.66034 9.17077 3.65648 18.5812M20.8279 1.5L3.65648 18.5812M2.15648 18.5808C2.15566 21.8553 3.01466 25.0527 4.64952 27.8704L2.45956 35.8298L4.1357 35.3922M2.15648 18.5808L3.65648 18.5814M2.15648 18.5808L3.65648 18.5812M4.1357 35.3922L6.09578 28.2684L6.26267 27.6618L5.94695 27.1177C4.44538 24.5297 3.65577 21.5923 3.65648 18.5814M3.65648 18.5814L3.65648 18.5812" stroke="white" stroke-width="3"/>
</g>
<path id="Vector_2" fill-rule="evenodd" clip-rule="evenodd" d="M16.3265 11.2662C15.9942 10.5376 15.6454 10.5229 15.3295 10.5103C15.0719 10.5 14.7761 10.5 14.4811 10.5C14.1861 10.5 13.7059 10.6092 13.3004 11.0477C12.8941 11.4855 11.75 12.5447 11.75 14.6979C11.75 16.8512 13.337 18.9328 13.5581 19.2251C13.7791 19.5167 16.6215 24.0778 21.1233 25.8324C24.8642 27.2903 25.6259 27.0002 26.4377 26.9279C27.2495 26.8548 29.0576 25.8693 29.4272 24.847C29.7962 23.8246 29.7962 22.9492 29.6856 22.7661C29.5751 22.5838 29.2794 22.4745 28.8365 22.2553C28.3936 22.0361 26.2167 20.9775 25.8104 20.8314C25.4041 20.6852 25.1091 20.6129 24.8141 21.0506C24.5191 21.4883 23.6707 22.4738 23.4123 22.7661C23.1539 23.0584 22.8955 23.0953 22.4527 22.8761C22.0098 22.6569 20.5834 22.1948 18.8911 20.7037C17.5745 19.5433 16.6857 18.1105 16.4273 17.6728C16.1689 17.235 16.3997 16.9981 16.6215 16.7796C16.8202 16.5832 17.0644 16.2688 17.2862 16.0134C17.5072 15.758 17.5812 15.5756 17.7283 15.2833C17.8762 14.991 17.8022 14.7356 17.6917 14.5164C17.5812 14.2971 16.7201 12.1328 16.3265 11.267" fill="white"/>
</g>
<defs>
<filter id="filter0_d_970_1294" x="0" y="0" width="41.5" height="42.5" filterUnits="userSpaceOnUse" color-interpolation-filters="sRGB">
<feFlood flood-opacity="0" result="BackgroundImageFix"/>
<feColorMatrix in="SourceAlpha" type="matrix" values="0 0 0 0 0 0 0 0 0 0 0 0 0 0 0 0 0 0 127 0" result="hardAlpha"/>
<feOffset dy="3"/>
<feGaussianBlur stdDeviation="1"/>
<feComposite in2="hardAlpha" operator="out"/>
<feColorMatrix type="matrix" values="0 0 0 0 0 0 0 0 0 0 0 0 0 0 0 0 0 0 0.05 0"/>
<feBlend mode="normal" in2="BackgroundImageFix" result="effect1_dropShadow_970_1294"/>
<feBlend mode="normal" in="SourceGraphic" in2="effect1_dropShadow_970_1294" result="shape"/>
</filter>
</defs>
</svg>
