<svg width="75" height="75" viewBox="0 0 75 75" fill="none" xmlns="http://www.w3.org/2000/svg">
<g id="Group 86">
<path id="Vector" d="M7.98739 55.392L7.70925 56.403L3.55949 71.4854L19.1637 67.4116L20.1194 67.162L20.9876 67.6332C26.0744 70.3937 31.8062 71.8513 37.6407 71.8543H37.6557C56.8649 71.8543 72.4893 56.2904 72.4968 37.1891V37.1889C72.5014 27.9257 68.8851 19.2264 62.3053 12.67C55.7263 6.11432 46.9863 2.50486 37.6557 2.5L7.98739 55.392ZM7.98739 55.392L7.46122 54.4851M7.98739 55.392L7.46122 54.4851M7.46122 54.4851C4.41377 49.2327 2.81149 43.2715 2.81294 37.1619L7.46122 54.4851ZM2.81294 37.1615C2.82074 18.0627 18.4425 2.50066 37.6545 2.5L2.81294 37.1615Z" fill="#59C33C" stroke="white" stroke-width="5"/>
<path id="Vector_2" fill-rule="evenodd" clip-rule="evenodd" d="M28.8982 22.7587C28.252 21.3237 27.5738 21.2946 26.9596 21.2699C26.4586 21.2495 25.8836 21.2495 25.31 21.2495C24.7364 21.2495 23.8026 21.4647 23.0141 22.3283C22.2242 23.1905 19.9995 25.2769 19.9995 29.5179C19.9995 33.759 23.0853 37.859 23.5151 38.4348C23.945 39.0091 29.4718 47.9928 38.2252 51.4488C45.499 54.3202 46.9801 53.7489 48.5586 53.6064C50.1371 53.4624 53.6527 51.5215 54.3715 49.5078C55.0888 47.4941 55.0888 45.7698 54.8739 45.4092C54.659 45.0501 54.084 44.8349 53.2228 44.4031C52.3617 43.9713 48.1288 41.8864 47.3388 41.5985C46.5488 41.3106 45.9752 41.1681 45.4017 42.0303C44.8281 42.8925 43.1784 44.8335 42.676 45.4092C42.1736 45.985 41.6711 46.0576 40.81 45.6258C39.9489 45.194 37.1753 44.2839 33.8848 41.347C31.3247 39.0614 29.5967 36.2394 29.0942 35.3772C28.5918 34.515 29.0405 34.0483 29.4718 33.618C29.858 33.2312 30.3329 32.6119 30.7642 32.1088C31.194 31.6057 31.3378 31.2466 31.6238 30.6709C31.9114 30.0951 31.7676 29.5921 31.5527 29.1603C31.3378 28.7284 29.6635 24.4656 28.8982 22.7601" fill="white"/>
</g>
</svg>
